<svg width="166" height="32" viewBox="0 0 166 32" fill="none" xmlns="http://www.w3.org/2000/svg">
<path d="M67.099 14.6411L65.263 18.9584H72.5346C72.449 19.588 72.0995 20.3022 71.3995 21.0859C70.1738 22.5152 68.1786 23.3664 66.1835 23.3664C62.0874 23.3664 58.8665 20.0645 58.8665 15.8449C58.8665 11.6253 61.9827 8.2891 66.0777 8.2891C67.3427 8.2891 68.4294 8.54495 69.4356 9.09998L71.1427 5.07983C69.5665 4.37371 67.8161 4 65.973 4C59.1113 4 54 9.07177 54 15.8439C54 22.616 59.1465 27.586 66.0072 27.586C69.2976 27.586 72.2737 26.3611 74.6194 24.0806C76.965 21.7658 78.0155 19.1458 78.0155 15.6394V14.6401H67.099V14.6411Z" fill="#707070"/>
<path d="M97.0416 27.5859H102.124L111.212 6.16162H95.8058V10.3873H104.332L97.0416 27.5859Z" fill="#707070"/>
<path d="M84.2315 27.5862H89.5886V14.6051H95.7664V10.3774H78.0144V14.6051H84.2315V27.5862Z" fill="#3D3D3D"/>
</svg>
