<svg width="166" height="32" viewBox="0 0 166 32" fill="none" xmlns="http://www.w3.org/2000/svg">
<path d="M64.3856 6.54443L64.3793 6.54126C64.3778 6.54126 64.3778 6.54285 64.3762 6.54285C59.8159 5.63773 57.2323 4.09221 56.7484 3.78311C56.7169 3.7625 56.6933 3.74665 56.6791 3.73873C56.6696 3.73239 56.6649 3.72763 56.6649 3.72763C56.627 3.70227 56.5939 3.67691 56.5608 3.65313C56.4205 3.54534 56.3528 3.46767 56.3228 3.41694C56.2976 3.37731 56.296 3.35512 56.296 3.34878C56.296 3.3472 56.296 3.34561 56.296 3.34561C56.296 3.32976 56.3023 3.31708 56.3118 3.30598C56.3307 3.2933 56.3874 3.26477 56.4836 3.26477C56.5057 3.26477 56.5325 3.26794 56.5624 3.27111C56.5624 3.27111 57.5051 3.36305 59.745 4.23646C59.745 4.23646 61.0092 4.74688 62.3585 5.438C62.3585 5.438 64.2611 6.37165 64.3856 6.54443Z" fill="#E26965"/>
<path d="M53.2884 12.9042C53.2884 12.9042 52.8187 13.0437 52.7146 14.8888L52.6847 14.9902L54.4139 14.1961C54.4139 14.1961 54.5747 14.1295 54.5968 14.0439C54.5968 14.0439 54.6551 13.9123 54.4376 13.7475L53.353 12.8677L53.2884 12.9042Z" fill="#006DAD"/>
<path d="M56.5645 3.27265C56.5789 3.27408 57.5225 3.37024 59.7451 4.23847C59.7505 4.24064 61.0126 4.74902 62.3574 5.43866C62.3911 5.45519 64.2623 6.37545 64.3857 6.54511L54.3115 12.2619C54.3115 12.2619 53.8376 12.5262 53.4814 12.9709L54.4375 13.7463C54.4478 13.7542 54.4558 13.7639 54.4648 13.7717C54.4823 13.7864 54.4983 13.7997 54.5117 13.8137C54.5214 13.8238 54.5293 13.8342 54.5371 13.8439C54.5473 13.8565 54.5561 13.8683 54.5635 13.8801C54.5683 13.8878 54.5724 13.8952 54.5762 13.9025C54.59 13.9293 54.5964 13.9527 54.5996 13.9728C54.6011 13.9826 54.6035 13.9913 54.6035 13.9992C54.6035 14.0025 54.6017 14.006 54.6016 14.009C54.6004 14.0291 54.5967 14.0422 54.5967 14.0422C54.5882 14.0757 54.5579 14.1043 54.5254 14.1291C54.4735 14.1688 54.4141 14.1965 54.4141 14.1965L52.9375 14.8732C52.9265 14.9572 52.924 15.0399 52.9082 15.1223C52.903 15.1881 52.2971 22.8298 51.9941 27.3391L51.9111 28.4738L30.8887 28.4699L42.8721 15.2697C42.8721 15.2697 43.3877 14.7431 43.5879 14.5861C43.5879 14.5861 44.187 14.098 44.0186 13.5939C44.0186 13.5939 43.8969 13.2356 43.7188 13.1642C43.6255 13.0799 43.0396 13.0262 43.0225 13.0246C42.6583 13.0278 42.3615 12.357 42.3457 11.5217C42.3363 10.688 42.6252 10.0082 42.9893 10.0051C42.9985 10.0042 43.2257 9.98335 43.4062 9.99725C43.4062 9.99725 44.4612 10.0237 46.4219 10.4025C46.4219 10.4025 46.7452 10.4618 46.8887 10.4396L47.6885 10.3019C47.6993 10.2994 48.0185 10.2203 48.3594 9.94452L56.3057 3.31073C56.3093 3.30796 56.3934 3.2463 56.5645 3.27265Z" fill="#3D3D3D"/>
<path d="M63.3955 15.3984C65.8199 15.3984 67.9501 15.8671 69.5391 16.6914L68.3428 20.6182L68.0322 20.4971C67.7201 18.1655 66.5831 16.0256 63.9463 16.0254C60.8 16.0254 59.8418 19.6542 59.8418 22.0684C59.8418 24.4778 60.8 28.1025 63.9463 28.1025C66.6053 28.1024 68.0694 26.4556 68.4619 23.8672L68.7354 23.7734L69.6729 27.1641C67.6993 28.1833 65.957 28.7334 63.3955 28.7334C59.6236 28.7332 56.0079 26.4384 56.0078 22.0684C56.0078 17.6935 59.6235 15.3986 63.3955 15.3984Z" fill="#3D3D3D"/>
<path d="M117.744 18.7783C116.393 19.7215 116.026 20.3879 115.301 21.8398L112.233 28.0693C112.137 28.3037 111.94 28.6741 111.846 28.6748H111.803C111.727 28.6746 111.63 28.5175 111.396 28.0693L107.78 21.0156C106.724 19.1532 106.938 19.4666 105.942 18.8564V18.498C106.88 18.4981 107.839 18.5684 108.679 18.5684C109.516 18.5684 110.591 18.498 111.512 18.498V18.7783C111.025 18.875 110.357 19.1339 110.357 19.6855C110.357 19.9154 110.457 20.2134 110.555 20.3877L113.015 24.8652L114.441 22.2549C114.794 21.624 115.067 20.6632 115.067 19.915C115.067 19.3081 114.596 18.9558 113.854 18.7783V18.498C114.5 18.498 115.181 18.5684 115.771 18.5684C116.355 18.5684 117.098 18.498 117.744 18.498V18.7783Z" fill="#3D3D3D"/>
<path fill-rule="evenodd" clip-rule="evenodd" d="M75.4883 17.8945C78.1252 17.8947 79.8877 18.9722 79.8877 22.3262V26.2588C79.8877 27.1417 80.1222 27.8899 80.9434 28.1055V28.3877H77.6377L77.209 26.7373C76.465 27.9071 75.5447 28.664 74.1025 28.6641C72.1085 28.6641 69.9756 27.907 69.9756 25.626C69.976 22.854 73.7917 22.0713 76.5801 22.0713H77.0107V21.1943C77.0107 19.6171 76.1496 18.5254 74.7246 18.5254C73.087 18.543 72.0338 19.8714 71.5215 21.8574L71.2305 21.9375L70.4092 18.8574C72.1083 18.3455 73.7513 17.8375 75.4883 17.8945ZM76.7178 22.6797C74.7648 22.6797 73.1153 23.6053 73.1152 25.8213C73.1152 26.8832 73.7396 27.9705 74.8838 27.9707C76.6366 27.9707 77.0781 25.758 77.0781 24.4297V22.6797H76.7178Z" fill="#3D3D3D"/>
<path fill-rule="evenodd" clip-rule="evenodd" d="M132.837 14.0762C132.837 14.6816 132.782 15.4503 132.782 16.1777V25.0449C132.782 26.6774 133.055 27.8193 134.11 28.1143V28.3945C133.193 28.3945 132.251 28.3233 131.353 28.3232C130.451 28.3232 129.51 28.3945 128.594 28.3945V28.3877H125.316L124.883 26.7373C124.145 27.907 123.224 28.6639 121.778 28.6641C119.786 28.6641 117.659 27.907 117.659 25.626C117.66 22.854 121.467 22.0713 124.259 22.0713H124.687V21.1943C124.687 19.6171 123.828 18.5254 122.403 18.5254C120.766 18.543 119.71 19.8714 119.199 21.8574L118.906 21.9375L118.088 18.8574C119.785 18.3455 121.428 17.8375 123.167 17.8945C125.802 17.8946 127.566 18.9722 127.566 22.3262V26.2588C127.566 27.1409 127.799 27.8882 128.62 28.1045C129.654 27.7979 129.923 26.6637 129.923 25.0449V16.5127C129.923 15.6298 129.627 15.2345 128.792 15.0586V14.7627C130.121 14.6248 131.451 14.3884 132.837 14.0762ZM124.395 22.6797C122.442 22.6797 120.791 23.6053 120.791 25.8213C120.791 26.8833 121.415 27.9707 122.564 27.9707C124.314 27.9707 124.754 25.758 124.754 24.4297V22.6797H124.395Z" fill="#3D3D3D"/>
<path d="M87.8584 21.3105C87.5432 20.9556 87.2331 20.6203 86.7227 20.6201C85.5893 20.6201 85.2012 22.155 85.2012 23.5928V25.1084C85.2012 26.7377 85.4723 27.877 86.5283 28.1719V28.4531C85.6078 28.4531 84.6694 28.3828 83.7725 28.3828C82.871 28.3828 81.935 28.4531 81.0146 28.4531V28.1719C82.0704 27.8769 82.3427 26.7376 82.3428 25.1084V20.9199C82.3427 19.543 81.7177 19.1323 81.1299 19.0117V18.7324C82.4238 18.6326 83.6926 18.4587 85.1016 18.1719C85.1015 18.6789 85.0606 19.2461 85.0605 19.8291V21.0371H85.1016C85.5099 19.6422 86.5474 17.8906 88.1504 17.8906H89.0303L87.8584 21.3105Z" fill="#3D3D3D"/>
<path d="M96.6904 17.8857C98.7616 17.8857 100.231 19.2714 100.231 21.3525V26.5615C100.231 27.4817 100.616 27.9909 101.508 28.1689V28.1143C102.562 27.9573 102.837 27.1514 102.837 25.9736V20.0918C102.837 19.4863 102.37 19.0742 101.78 18.9521V18.6748C103.07 18.5749 104.342 18.3969 105.693 18.1084V25.9736C105.693 27.1513 105.966 27.9572 107.021 28.1143V28.3945C106.101 28.3945 105.165 28.3232 104.267 28.3232C103.37 28.3232 102.434 28.393 101.519 28.3936V28.4531C100.619 28.4531 99.6242 28.3818 98.8047 28.3818C98.0025 28.3818 97.082 28.4531 96.1836 28.4531V28.1719C96.8659 28.0924 97.377 27.5441 97.377 26.5615V21.9219C97.3769 20.6491 97.0439 18.9758 95.4805 18.9756C93.8017 18.9756 93.3555 21.5131 93.3555 22.7686V25.1064C93.3555 26.7375 93.6281 27.877 94.6826 28.1719V28.4531C93.7652 28.4531 92.8272 28.3818 91.9287 28.3818C91.0255 28.3818 90.0875 28.4531 89.167 28.4531V28.1719C90.2231 27.877 90.4971 26.7375 90.4971 25.1064V20.9189C90.4971 19.543 89.8731 19.1306 89.2852 19.0117V18.7324C90.573 18.6326 91.847 18.4552 93.1963 18.1699V20.1182H93.2354C93.9415 18.6266 95.015 17.8858 96.6904 17.8857Z" fill="#3D3D3D"/>
<path d="M104.211 14.0791C105.068 14.0791 105.698 14.8461 105.698 15.6719C105.698 16.4977 105.068 17.2637 104.211 17.2637C103.352 17.2635 102.728 16.4976 102.728 15.6719C102.728 14.8462 103.352 14.0793 104.211 14.0791Z" fill="#3D3D3D"/>
<path d="M64.3858 6.54443C59.2974 5.53628 56.665 3.72763 56.665 3.72763C56.2788 3.46291 56.2961 3.34561 56.2961 3.34561C56.3009 3.03492 58.3138 3.70227 58.3138 3.70227C59.1713 3.96699 60.1108 4.3601 60.9888 4.76749C60.9888 4.76749 64.5797 6.45884 64.3858 6.54443Z" fill="#707070"/>
<path d="M64.3862 6.54492L54.312 12.2617C54.312 12.2617 53.838 12.5262 53.4819 12.9707L54.438 13.7461C54.4481 13.754 54.4563 13.7638 54.4653 13.7715C54.4827 13.7861 54.4988 13.7996 54.5122 13.8135C54.5218 13.8236 54.5298 13.8341 54.5376 13.8438C54.5477 13.8563 54.5566 13.8682 54.564 13.8799C54.5687 13.8876 54.5729 13.895 54.5766 13.9023C54.5904 13.929 54.5969 13.9526 54.6001 13.9727C54.6016 13.9823 54.6039 13.9911 54.604 13.999C54.604 14.0023 54.6023 14.0059 54.602 14.0088C54.601 14.0272 54.5977 14.04 54.5972 14.042C54.5887 14.0754 54.5582 14.1042 54.5259 14.1289C54.4766 14.1665 54.4202 14.1936 54.4145 14.1963L52.938 14.873C52.927 14.9569 52.9244 15.0398 52.9087 15.1221C52.9035 15.1879 52.2975 22.8296 51.9946 27.3389L51.9116 28.4736L51.2134 28.4727C51.2134 26 49.5 24 48 16.5C46.4999 9 56.5001 9 64.3569 6.51758C64.3698 6.52853 64.3805 6.53704 64.3862 6.54492Z" fill="#707070"/>
<path d="M64.3857 6.54492L54.3115 12.2617C54.3115 12.2617 53.8375 12.5261 53.4814 12.9707L54.4375 13.7461C54.4477 13.754 54.4558 13.7638 54.4648 13.7715C54.4822 13.7861 54.4983 13.7995 54.5117 13.8135C54.5213 13.8236 54.5293 13.8341 54.5371 13.8438C54.5472 13.8563 54.5561 13.8682 54.5634 13.8799C54.5682 13.8876 54.5724 13.8951 54.5761 13.9023C54.5899 13.929 54.5964 13.9526 54.5996 13.9727C54.6011 13.9823 54.6034 13.9911 54.6035 13.999C54.6035 14.0023 54.6017 14.0058 54.6015 14.0088C54.6004 14.0276 54.5966 14.042 54.5966 14.042C54.5882 14.0755 54.5578 14.1041 54.5253 14.1289C54.4743 14.1679 54.416 14.1954 54.414 14.1963L52.9375 14.873C52.9264 14.9569 52.9239 15.0398 52.9082 15.1221C52.9029 15.1879 52.297 22.8296 51.9941 27.3389L51.9834 27.4805C51.7786 20.4166 49.5684 14.4088 51 12.5C52.1882 10.9157 60.3375 7.89371 64.3808 6.54004C64.3824 6.54191 64.3844 6.5432 64.3857 6.54492Z" fill="#3D3D3D"/>
<ellipse cx="43.2106" cy="11.5168" rx="0.5" ry="1.06616" fill="#707070"/>
</svg>
