<svg width="166" height="32" viewBox="0 0 166 32" fill="none" xmlns="http://www.w3.org/2000/svg">
<path d="M90.6044 21.9789L91.1058 20.2947H79.4067L82.5822 8H78.7382L75.833 18.5646C75.361 20.2813 76.6423 21.9789 78.41 21.9789H90.6044Z" fill="#3D3D3D"/>
<path d="M55.3398 22.1474L62.6936 11.5368L70.0474 22.1474H74.5599L65.353 8.87277C64.5512 7.71667 62.8505 7.72289 62.057 8.88483L53 22.1474H55.3398Z" fill="#3D3D3D"/>
<path d="M95.7855 8.16842H109.657L109.323 9.51579H98.6267L97.9582 11.8737H101.969C104.142 11.8737 113 12.3789 113 17.2631C113 22.1474 104.142 23.6631 93.4457 22.3158L93.7799 20.4631C95.0613 20.5754 98.1922 20.8 100.465 20.8C103.306 20.8 108.989 19.9579 108.989 17.2631C108.989 14.5684 103.808 13.221 94.1142 13.8947L95.7855 8.16842Z" fill="#3D3D3D"/>
<path fill-rule="evenodd" clip-rule="evenodd" d="M97.5359 27.152C97.5167 27.0524 97.4404 26.974 97.3419 26.9529C97.2435 26.9318 97.1421 26.972 97.0844 27.0551L93.7664 31.8316H94.3785L95.3166 30.481H97.6646L97.9239 31.8316H98.4346L97.5359 27.152ZM97.568 29.9784H95.6658L97.156 27.8331L97.568 29.9784Z" fill="#3D3D3D"/>
<path fill-rule="evenodd" clip-rule="evenodd" d="M92.2758 27.1158H90.2472L88.9369 31.8316H91.4401C92.2798 31.8316 92.781 31.5571 93.062 31.1844C93.3333 30.8247 93.3621 30.4211 93.3621 30.2316C93.3621 30.0012 93.2745 29.7212 93.0399 29.4998C92.9605 29.4249 92.8671 29.3593 92.7591 29.3053C92.8377 29.2367 92.9082 29.1625 92.9698 29.088C93.0884 28.9445 93.1839 28.7887 93.2506 28.6421C93.3147 28.5011 93.3621 28.3469 93.3621 28.2105C93.3621 28.0066 93.3512 27.7204 93.1882 27.4892C93.011 27.2376 92.7067 27.1158 92.2758 27.1158ZM92.5846 28.7646C92.3981 28.9901 92.1694 29.1368 91.9415 29.1368H90.2063L90.6275 27.6211H92.2758C92.6188 27.6211 92.7324 27.7149 92.7794 27.7818C92.8409 27.8689 92.8608 28.0038 92.8608 28.2105C92.8608 28.2425 92.8455 28.3199 92.7948 28.4316C92.7465 28.5376 92.6748 28.6554 92.5846 28.7646ZM91.9415 29.6421H90.0659L89.598 31.3263H91.4401C92.1649 31.3263 92.4993 31.0955 92.6628 30.8787C92.8361 30.649 92.8608 30.3789 92.8608 30.2316C92.8608 30.1251 92.8195 29.9841 92.6972 29.8686C92.5766 29.7548 92.3515 29.6421 91.9415 29.6421Z" fill="#3D3D3D"/>
<path d="M104.124 27.2L103.08 31.0146L101.361 27.2626C101.318 27.168 101.222 27.1099 101.119 27.1163C101.015 27.1226 100.927 27.192 100.895 27.2911L99.4469 31.8316H99.9735L101.176 28.0627L102.912 31.8532C102.956 31.9495 103.055 32.0078 103.16 31.9992C103.265 31.9905 103.353 31.9168 103.381 31.8145L104.644 27.2H104.124Z" fill="#3D3D3D"/>
<path d="M105.887 30.4996L106.797 27.2H107.318L106.583 29.8652L107.496 29.1087L109.88 27.2H110.686L107.988 29.3597L109.624 31.8316H109.022L107.597 29.679L106.348 30.7138L106.028 31.8316H105.506L105.887 30.4996Z" fill="#3D3D3D"/>
</svg>
