<svg width="166" height="32" viewBox="0 0 166 32" fill="none" xmlns="http://www.w3.org/2000/svg">
<path fill-rule="evenodd" clip-rule="evenodd" d="M47.3254 25.0212C49.1803 25.0213 49.8484 25.851 49.3315 27.5107C48.8147 29.1703 47.6277 30.0001 45.7727 30.0002C43.9175 30.0002 43.2452 29.1809 43.7578 27.54C44.281 25.8613 45.4724 25.0212 47.3254 25.0212ZM47.031 26.0671C46.2116 26.0671 45.6463 26.5694 45.3333 27.5737C45.0266 28.5568 45.2809 29.0487 46.1001 29.0488C46.8984 29.0488 47.4533 28.5464 47.7664 27.5422C48.0731 26.559 47.8272 26.0671 47.031 26.0671Z" fill="#3D3D3D"/>
<path fill-rule="evenodd" clip-rule="evenodd" d="M63.1223 25.0212C64.9565 25.0212 65.6159 25.8509 65.0969 27.5107C64.58 29.1703 63.4035 30.0002 61.5674 30.0002C59.7124 30.0001 59.04 29.1807 59.5525 27.54C60.0777 25.8613 61.2672 25.0212 63.1223 25.0212ZM62.7964 26.0671C61.9982 26.0672 61.4439 26.5695 61.1309 27.5737C60.8241 28.5569 61.0701 29.0488 61.8684 29.0488C62.6854 29.0486 63.2502 28.5462 63.5632 27.5422C63.87 26.5589 63.6137 26.0671 62.7964 26.0671Z" fill="#3D3D3D"/>
<path fill-rule="evenodd" clip-rule="evenodd" d="M88.5549 24.9941C90.4099 24.9942 91.0824 25.8135 90.5698 27.4543C90.0467 29.1349 88.8551 29.9753 87 29.9753C85.145 29.9753 84.4765 29.1453 84.9932 27.4858C85.5142 25.8239 86.6998 24.9941 88.5549 24.9941ZM88.2671 26.0085C87.4519 26.0085 86.8821 26.5191 86.5627 27.5444C86.2623 28.5087 86.5211 28.9895 87.3384 28.9895C88.1366 28.9894 88.6869 28.4981 88.9937 27.5151C89.3067 26.5109 89.0652 26.0086 88.2671 26.0085Z" fill="#3D3D3D"/>
<path d="M82.4407 24.9304C84.3357 24.9304 85.0776 25.4641 84.6658 26.5292H83.0501C83.2055 26.2225 83.1738 26.0378 82.949 25.9748C82.8837 25.9349 82.659 25.914 82.281 25.914C81.6235 25.914 81.2493 26.059 81.1589 26.3447C81.0963 26.5504 81.3762 26.6739 82.002 26.7138C82.8799 26.7747 83.4534 26.857 83.7202 26.9599C84.2938 27.1658 84.4784 27.5964 84.2747 28.2519C83.9175 29.399 82.7917 29.9731 80.8967 29.9731C79.0626 29.9731 78.3564 29.3886 78.7808 28.2204H80.4573C80.3102 28.5692 80.3296 28.7942 80.5166 28.8972C80.6177 28.958 80.8865 28.9895 81.3252 28.9895C82.0038 28.9895 82.3862 28.8466 82.4766 28.5588C82.5795 28.2311 82.3189 28.0486 81.6929 28.0065C80.7139 27.9435 80.1446 27.8822 79.9849 27.8212C79.4051 27.6364 79.2261 27.1848 79.4487 26.4685C79.7681 25.4432 80.7663 24.9304 82.4407 24.9304Z" fill="#3D3D3D"/>
<path d="M92.4646 27.5144C92.1831 28.4157 92.412 28.8679 93.1494 28.8679C93.868 28.8679 94.3657 28.4157 94.6472 27.5144L95.3848 25.1472H96.7925L96.074 27.4514C95.5698 29.0712 94.4899 29.88 92.8345 29.8801C91.16 29.8801 90.5739 29.0712 91.0781 27.4514L91.7966 25.1472H93.2022L92.4646 27.5144Z" fill="#3D3D3D"/>
<path d="M41.6375 27.9121L42.501 25.145H43.9365L42.4695 29.8493H40.5242L39.4797 26.8654L38.5518 29.8493H37.114L38.5811 25.145H40.6758L41.6375 27.9121Z" fill="#3D3D3D"/>
<path fill-rule="evenodd" clip-rule="evenodd" d="M53.6594 25.145C54.7959 25.145 55.2311 25.5757 54.9624 26.4348C54.7901 26.9894 54.4178 27.3468 53.8484 27.5107C54.195 27.5506 54.3256 27.8699 54.2395 28.4643C54.1176 29.3047 54.0629 29.7652 54.0776 29.8471H52.552C52.4515 29.8465 52.4747 29.5481 52.6216 28.9565C52.7665 28.362 52.6196 28.0652 52.1807 28.0651H51.1633L50.6067 29.8493H49.2012L50.6675 25.145H53.6594ZM51.4805 27.0507H52.6172C52.9364 27.0507 53.1444 26.8973 53.239 26.5908C53.3293 26.303 53.2036 26.1601 52.8655 26.1601H51.7581L51.4805 27.0507Z" fill="#3D3D3D"/>
<path d="M59.7459 26.1601H57.2022L56.9246 27.0507H59.2588L58.9417 28.0651H56.6096L56.0522 29.8493H54.6174L56.0837 25.145H60.063L59.7459 26.1601Z" fill="#3D3D3D"/>
<path d="M66.6606 28.8342H69.1436L68.8264 29.8493H64.908L66.3743 25.145H67.812L66.6606 28.8342Z" fill="#3D3D3D"/>
<path d="M71.3079 27.2668L73.9446 25.145H75.7998L73.1631 27.2668L74.5115 29.8493H72.627L71.2991 27.2961L70.5029 29.8493H69.0681L70.5344 25.145H71.9692L71.3079 27.2668Z" fill="#3D3D3D"/>
<path fill-rule="evenodd" clip-rule="evenodd" d="M115.655 25.1157C116.773 25.1157 117.197 25.5463 116.928 26.4077C116.75 26.9811 116.384 27.3505 115.835 27.5144C116.188 27.5354 116.319 27.8531 116.227 28.4687C116.084 29.3084 116.023 29.758 116.043 29.8215H114.548C114.447 29.8214 114.457 29.5336 114.577 28.9602C114.722 28.3656 114.586 28.0696 114.168 28.0695H113.147V28.0673L112.6 29.8193H111.195L112.653 25.1472L115.655 25.1157ZM113.459 27.0522H114.569C114.907 27.0521 115.126 26.8989 115.22 26.5922C115.317 26.2835 115.195 26.1301 114.855 26.1301H113.747L113.459 27.0522Z" fill="#3D3D3D"/>
<path d="M101.543 26.1301H99.8687L98.7173 29.8193H97.3118L98.4631 26.1301H96.7866L97.0928 25.1472H101.85L101.543 26.1301Z" fill="#3D3D3D"/>
<path d="M103.02 26.9599H105.174L105.738 25.1472H107.146L105.688 29.8193H104.282L104.858 27.975H102.702L102.129 29.8193H100.692L102.15 25.1472H103.585L103.02 26.9599Z" fill="#3D3D3D"/>
<path d="M111.686 26.1301H109.142L108.884 26.9599H111.157L110.842 27.975H108.566L108.308 28.8049H110.852L110.535 29.8193H106.585L108.043 25.1472H111.993L111.686 26.1301Z" fill="#3D3D3D"/>
<path d="M121.031 27.9135L121.895 25.1472H123.332L121.874 29.8193H119.899L118.844 26.8676L117.924 29.8193H116.519L117.977 25.1472H120.07L121.031 27.9135Z" fill="#3D3D3D"/>
<path fill-rule="evenodd" clip-rule="evenodd" d="M114.006 6.23017C114.021 6.22803 119.935 5.40204 125.139 6.89595C125.139 6.89595 127.418 7.66249 127.908 8.83467C127.908 8.83467 128.763 10.1711 127.5 11.9086L119.645 11.6252C119.645 11.6252 120.243 11.039 119.895 10.539C119.892 10.5341 119.612 10.0054 117.443 9.98237C117.443 9.98237 115.588 9.89214 115.193 10.7199C115.187 10.7315 114.741 11.537 116.456 11.7915C116.506 11.797 122.34 12.4374 123.152 12.7407C123.189 12.7506 127.18 13.8271 126.45 17.0246C126.151 19.1823 124.452 21.2058 122.42 21.9201C121.529 22.2331 120.586 22.3632 119.647 22.4577C116.422 22.7855 113.306 22.8944 109.793 22.4343C108.732 22.2956 107.728 22.0627 106.783 21.5312C105.974 21.0775 105.346 20.2709 104.917 19.4621L104.066 22.3295L97.1646 22.3398H96.9082L92.9165 14.4575L90.1912 22.2915L77.2324 22.3171L78.6526 18.2976C78.7177 18.0372 78.817 17.907 79.1741 17.7116C79.5331 17.5165 79.5646 17.678 79.6948 17.7431C79.8253 17.8083 81.027 18.3275 81.6782 18.2309C82.2312 18.7185 84.6382 20.0517 85.8084 20.2473C85.9071 21.1591 86.3298 21.321 86.3298 21.321C86.6556 21.5499 87.7291 21.3859 88.1514 21.0288C88.4455 20.9951 88.9016 20.8337 89.1284 20.5732C89.3552 20.3127 89.1594 19.8251 89.3232 19.4995C89.485 19.1739 89.7794 19.1088 89.811 18.9135C89.8426 18.7181 89.9725 18.7183 89.4199 18.1657C87.7939 16.5397 85.2899 12.7014 85.0942 12.4089C84.8989 12.1169 85.1255 11.8879 84.9302 11.5959C84.7348 11.3018 84.4093 11.2698 84.2791 11.0744C84.1482 10.8782 82.9444 9.25293 82.1001 8.66694L82.1316 8.50508C82.64 7.95252 82.8947 6.94818 83.0039 6.36201L95.7275 6.3664C95.7366 6.36835 96.0128 6.3686 96.0212 6.3686L99.9485 14.3183L102.698 6.40229H109.598L108.875 8.05976C109.388 7.61644 110.932 6.53481 114.006 6.23017ZM105.877 16.6972L113.134 17.0012C112.984 17.3729 112.97 17.7786 113.279 18.0727C113.48 18.2639 113.749 18.3631 114.016 18.4345C115.081 18.7182 116.458 18.7348 117.535 18.4785C117.796 18.4154 118.048 18.298 118.229 18.1005C118.363 17.9514 118.454 17.7641 118.485 17.5666C118.515 17.3838 118.491 17.18 118.367 17.0393C118.271 16.9301 118.132 16.8774 117.987 16.8459C117.914 16.8312 117.84 16.8206 117.771 16.8122C116.3 16.6358 114.834 16.4929 113.357 16.413C113.357 16.413 107.971 16.3121 106.982 13.5178L105.877 16.6972Z" fill="#3D3D3D"/>
<path d="M58.9775 20.3125L53.855 22.3149H39.8584L40.6714 19.9726H57.5757L58.9775 20.3125Z" fill="#3D3D3D"/>
<path d="M61.9959 16.5749C62.4938 16.7577 62.8411 16.9111 62.8411 16.9111C62.8411 16.9111 61.009 17.4065 60.4395 17.6545C60.1411 17.7827 58.7416 18.4073 57.605 18.9157H41.0413L41.8542 16.5749H61.9959Z" fill="#3D3D3D"/>
<path d="M66.6035 13.1904C63.6436 13.8626 61.2865 14.9381 60.1245 15.5327H42.2153L43.0305 13.1904H66.6035Z" fill="#3D3D3D"/>
<path d="M67.0217 9.80806C66.2833 10.0134 65.8091 10.1716 65.7971 10.1735C67.4793 10.4327 69.1717 10.9039 69.1897 10.9089C66.3303 10.9551 63.2921 11.8267 62.2668 12.1481H43.3923L44.2053 9.80806H67.0217Z" fill="#3D3D3D"/>
<path d="M80.762 6.36201C80.0813 7.11622 79.4993 7.43135 79.4993 7.43135C79.4887 7.42789 79.0413 7.28203 77.499 6.89595C75.9011 6.49547 74.7985 6.74331 74.781 6.75093C75.9511 6.97796 76.8816 7.91474 76.8816 7.91474C76.8734 7.91347 75.0685 7.63077 73.3748 7.57417C71.7885 7.52192 69.2668 7.91166 69.2468 7.91474C69.7238 8.25086 70.6903 8.53413 71.373 8.7043H44.5898L45.405 6.36201H80.762Z" fill="#3D3D3D"/>
<path d="M82.6384 6.36201C82.2309 6.74011 81.672 7.21889 81.5479 7.30098C81.3525 7.42913 81.2226 7.55947 81.189 7.33467C81.1701 7.19589 81.1381 6.7149 81.115 6.36201H82.6384Z" fill="#3D3D3D"/>
</svg>
