<svg width="166" height="32" viewBox="0 0 166 32" fill="none" xmlns="http://www.w3.org/2000/svg">
<path d="M83.291 10.0352C85.1282 10.3544 86.9608 10.7502 88.7861 11.127C88.7611 11.6698 88.6985 12.756 88.6729 13.2988C84.6029 12.3346 80.1651 11.1526 76.0957 12.6914C71.7941 14.5752 72.4624 21.8095 76.5703 23.541C79.8714 24.9453 83.6475 24.4733 86.9736 23.3887C87.0418 21.9838 86.6109 20.4246 87.2539 19.1289C88.3479 18.5478 89.5364 18.1967 90.6992 17.7812C90.8374 20.1894 90.8618 22.6095 90.7871 25.0234C89.1243 25.3363 87.4665 25.6868 85.8105 26H76.1465C74.2891 25.4955 72.3256 24.9277 70.9131 23.5225C68.1814 20.7634 68.2318 15.8401 70.7383 12.9541C72.3124 11.1913 74.6634 10.5971 76.8389 10.0352H83.291Z" fill="#3D3D3D"/>
<path d="M107.653 10.0352C109.341 10.3928 111.035 10.6996 112.735 10.9678C112.824 11.7658 112.91 12.5575 112.998 13.3555C108.798 12.3401 104.128 10.9803 99.9766 12.8574C95.8002 15.0797 96.8696 22.3412 101.214 23.7461C104.339 24.7489 107.884 24.6025 110.947 23.4268C111.122 22.0484 111.01 20.629 111.305 19.2627C112.392 18.4577 113.767 18.254 115.012 17.8262C114.999 20.1314 115.461 22.5643 114.873 24.792C113.423 25.5401 111.735 25.6552 110.153 26H100.502C98.333 25.5405 96.0254 24.8182 94.5938 22.9727C92.3061 19.9723 92.5315 15.1644 95.3193 12.5645C96.9318 11.0705 99.1257 10.5524 101.176 10.0352H107.653Z" fill="#3D3D3D"/>
<path d="M8.29688 13.1182C9.05329 11.8985 10.1094 10.2446 11.791 10.9277C12.6724 11.7323 13.2852 12.7793 13.9541 13.7627C16.5485 17.7864 19.518 21.5403 21.9561 25.6729C20.4495 25.7236 18.9243 25.8127 17.4365 25.5254C14.6297 22.0132 12.5229 17.9337 9.54102 14.5557C7.2217 18.036 4.78299 21.4202 2.48242 24.9062C2.10738 25.7555 0.407624 26.1773 0.000976562 25.2129C2.72663 21.1515 5.61498 17.2118 8.29688 13.1182Z" fill="#3D3D3D"/>
<path d="M121.157 10.5273C121.207 15.5019 121.232 20.6928 121.139 25.668C119.832 25.6169 118.569 25.6807 117.262 25.668C117.193 21.185 117.174 16.3955 117.193 11.9189C118.475 11.3378 119.787 10.8466 121.157 10.5273Z" fill="#3D3D3D"/>
<path d="M56.2842 12.9092C57.0406 11.6895 58.0976 10.0355 59.7793 10.7188C60.6602 11.5233 61.2727 12.5705 61.9414 13.5537C64.5358 17.5769 67.5059 21.3322 69.9443 25.4639C68.4377 25.515 66.9117 25.6038 65.4238 25.3164C62.6172 21.8042 60.5103 17.7238 57.5283 14.3457C55.209 17.826 52.7703 21.2105 50.4697 24.6973C50.0948 25.5465 48.3943 25.9678 47.9883 25.0029C50.7133 20.9425 53.602 17.0029 56.2842 12.9092Z" fill="#3D3D3D"/>
<path d="M43.1934 11.1074C44.3245 9.81756 46.5687 10.9541 46.4189 12.6143C46.5255 16.8864 46.3688 21.165 46.4873 25.4375C45.1999 25.4694 43.9114 25.4952 42.624 25.4307C42.5428 21.7658 42.5932 18.0933 42.6182 14.4277C39.7049 15.9862 38.4708 19.8499 35.2012 20.6152C32.2818 19.345 30.1645 16.0505 27.4326 14.4668C27.4826 18.1386 27.5512 21.8105 27.4199 25.4756C26.101 25.4823 24.7759 25.4823 23.457 25.4756C23.4633 21.1656 23.3439 16.8489 23.5127 12.5449C23.5002 10.8782 25.6325 9.97117 26.7891 11.1143C28.6957 13.0045 30.4274 15.0609 32.3213 16.9639C33.2277 17.7494 33.9972 19.0836 35.335 19.0322C38.2731 16.7397 40.5049 13.6745 43.1934 11.1074Z" fill="#3D3D3D"/>
<path d="M135.326 10C137.049 10 137.787 10.9013 138.446 11.7705L147.991 25.9346H141.041L130.305 10.002C132.243 10.002 133.389 10 135.326 10Z" fill="#3D3D3D"/>
<path d="M157.152 25.9346H150.202L139.466 10.002H146.416L157.152 25.9346Z" fill="#3D3D3D"/>
<path d="M165.999 25.9346H159.049L148.312 10.002H155.263L165.999 25.9346Z" fill="#3D3D3D"/>
<path fill-rule="evenodd" clip-rule="evenodd" d="M128.517 17.9369C130.469 16.5656 133.135 17.0791 134.471 19.0834C135.806 21.0877 135.307 23.8254 133.354 25.1967C131.402 26.5679 128.736 26.0545 127.4 24.0502C126.065 22.0455 126.565 19.3081 128.517 17.9369ZM129.485 19.3168C129.08 18.4682 127.835 20.2199 127.663 20.4945C127.176 21.2753 126.946 22.6254 126.946 22.6254C126.946 22.6254 127.422 21.2733 127.983 20.6127C128.822 19.6236 129.741 19.8538 129.485 19.3168Z" fill="#707070"/>
</svg>
