<svg width="166" height="32" viewBox="0 0 166 32" fill="none" xmlns="http://www.w3.org/2000/svg">
<path fill-rule="evenodd" clip-rule="evenodd" d="M58.1463 10.7151L58.1463 10.7165C58.14 11.3447 58.1336 11.9729 58.1336 12.5695C57.4923 11.7147 52.7171 11.2201 52.4245 13.5118C52.1787 15.4351 55.5754 15.9599 57.686 16.286C58.1605 16.3593 58.5702 16.4226 58.8587 16.4895C60.889 16.96 62.376 18.2449 63.0509 19.7507C62.4857 15.7073 65.0439 11.2173 70.7254 11.2173C75.0052 11.2173 77.9294 13.6936 78.3684 17.5371C78.7954 13.2724 81.9045 11.2173 85.6457 11.2173C89.6765 11.2173 92.9732 13.7966 92.9732 18.566V20.7765C93.3232 18.9606 94.9586 17.3394 97.9293 17.2238C99.5373 17.1629 101.936 17.1472 103.398 17.262C103.231 15.8037 101.988 14.6612 100.491 14.6612C100.144 14.6612 99.8102 14.7236 99.5008 14.8357V11.2683C99.8242 11.2344 100.155 11.2173 100.491 11.2173C104.216 11.2173 107.315 12.4302 107.763 16.8762C108.38 12.6432 112.563 9.36914 117.631 9.36914C117.977 9.36914 118.319 9.38461 118.657 9.41435V12.7835C118.643 12.7835 118.629 12.7832 118.614 12.7829L118.614 12.7828C118.599 12.7825 118.584 12.7821 118.569 12.7821C115.258 12.7821 112.574 15.1006 112.574 17.9607C112.574 20.8209 115.258 23.1393 118.569 23.1393C118.599 23.1393 118.628 23.1393 118.657 23.1383V26.507C118.319 26.5368 117.977 26.5525 117.631 26.5525C112.696 26.5525 108.6 23.4476 107.819 19.3757V25.818H103.418V23.8937C102.203 25.3661 100.25 25.9145 98.6106 25.9657C95.2551 26.0743 93.3544 24.2755 92.9732 22.2814V25.818H88.5712V17.5964C88.5712 15.9823 87.2553 14.6612 85.6457 14.6612C84.0363 14.6612 82.7191 15.9823 82.7191 17.5964V25.818H78.3184V19.8909H67.3916C67.4523 22.1785 70.0173 23.1622 72.1637 22.7921V25.9711C71.6975 26.0394 71.217 26.0746 70.7254 26.0746C66.8345 26.0746 64.4084 23.9688 63.4472 21.3427C63.5688 23.476 62.0581 25.6429 58.2625 26.4022C53.7359 27.3079 50.0657 25.9667 47.3057 23.9019C48.2373 23.0119 49.1684 22.1219 50.0982 21.2304C52.2688 23.3182 59.2487 24.6247 58.8912 21.4728C58.8008 20.6706 58.2031 20.2341 57.4568 19.9407C56.5428 19.5818 55.4974 19.3461 54.4501 19.1101C53.4084 18.8753 52.3648 18.6401 51.4465 18.2826C45.7612 16.0657 47.806 9.66956 52.8908 8.8633C54.564 8.59665 56.4847 8.6706 58.159 8.8633C58.159 9.4595 58.1527 10.0873 58.1463 10.7151ZM103.418 19.575C102.437 19.4787 100.815 19.4958 99.7156 19.5325C95.8095 19.6628 96.3281 24.1501 101.075 23.1721C102.445 22.8901 103.29 21.6299 103.418 20.635V19.575ZM67.3916 17.5809C67.485 13.3376 74.2669 13.3786 74.2823 17.5809H67.3916Z" fill="#3D3D3D"/>
</svg>
