<svg width="166" height="32" viewBox="0 0 166 32" fill="none" xmlns="http://www.w3.org/2000/svg">
<path d="M60.0504 7.01461L56.0579 3.02229L52.0655 7.01455L50.5543 5.5036L56.0579 0L61.5616 5.50369L60.0504 7.01461Z" fill="#707070"/>
<path d="M45.0001 8.41778L53.0683 8.41784L53.0683 10.6925L47.4302 10.6924L47.4301 13.4532L52.2907 13.4533L52.2907 15.7474L47.4301 15.7474L47.4301 18.5856L53.0682 18.5857L53.0682 20.8798L45 20.8797L45.0001 8.41778ZM54.8701 7.50391L57.2422 7.50392L57.2421 19.1053L57.242 20.8798L54.87 20.8798L54.8701 7.50391ZM58.6921 16.2332C58.6921 13.5118 60.7144 11.2952 63.3973 11.2952C66.0607 11.2952 68.0824 13.356 68.0824 16.0388C68.0824 16.3307 68.0629 16.661 68.0239 16.8169L61.1226 16.8168C61.3554 18.119 62.3473 19.0525 63.786 19.0525C64.7189 19.0525 65.5159 18.6442 66.0606 18.0806L67.2854 19.6941C66.5853 20.5106 65.2636 21.1522 63.6885 21.1522C60.7917 21.1522 58.692 18.9355 58.6921 16.2332ZM61.1611 15.3197L65.6524 15.3198C65.3801 13.9976 64.5441 13.317 63.4357 13.317C62.2499 13.3169 61.4334 14.1339 61.1611 15.3197ZM78.178 11.5676L74.8145 20.88L71.7428 20.8799L68.3599 11.5676L70.9654 11.5676L73.3369 18.7607L75.748 11.5676L78.178 11.5676ZM85.6692 19.8692C84.9886 20.6662 84.0362 21.1524 82.8309 21.1524C80.3619 21.1523 78.3591 19.1301 78.3592 16.2333C78.3592 13.4145 80.2451 11.2953 82.831 11.2953C84.0558 11.2953 85.0082 11.7426 85.6693 12.5006L85.6693 11.5677L88.0604 11.5677L88.0603 20.8801L85.6692 20.88L85.6692 19.8692ZM85.6693 16.2139C85.6693 14.7173 84.6389 13.531 83.2198 13.531C81.7811 13.531 80.7312 14.7172 80.7312 16.2138C80.7312 17.7109 81.7811 18.9162 83.2197 18.9162C84.6389 18.9162 85.6693 17.711 85.6693 16.2139ZM92.3022 20.8801L89.9301 20.8801L89.9302 11.5677L92.3023 11.5677L92.3023 12.4812C92.8854 11.7231 93.7799 11.2954 94.9267 11.2954C97.0849 11.2954 98.465 12.812 98.465 15.2421L98.465 20.8801L96.0934 20.8801L96.0934 15.5923C96.0935 14.3286 95.3544 13.5311 94.2076 13.5311C93.0213 13.5311 92.3022 14.3286 92.3022 15.5923L92.3022 20.8801ZM104.737 13.5311C103.182 13.5311 102.132 14.7174 102.132 16.214C102.132 17.7111 103.202 18.9164 104.718 18.9164C105.671 18.9164 106.429 18.5861 107.012 18.003L108.217 19.7524C107.479 20.5694 106.137 21.1525 104.66 21.1525C101.899 21.1525 99.7603 18.9358 99.7603 16.2335C99.7604 13.5121 101.899 11.2955 104.621 11.2955C106.215 11.2955 107.479 11.8402 108.295 12.6952L106.935 14.3866C106.351 13.823 105.651 13.5312 104.737 13.5311ZM108.86 16.2335C108.86 13.5122 110.882 11.2955 113.565 11.2956C116.228 11.2956 118.25 13.3564 118.25 16.0392C118.25 16.3311 118.231 16.6614 118.192 16.8173L111.29 16.8172C111.523 18.1194 112.515 19.0529 113.954 19.0529C114.887 19.0529 115.684 18.6446 116.228 18.081L117.453 19.6945C116.753 20.511 115.431 21.1526 113.856 21.1526C110.96 21.1526 108.86 18.9359 108.86 16.2335ZM111.329 15.3201L115.82 15.3201C115.548 13.9979 114.712 13.3174 113.604 13.3173C112.418 13.3173 111.601 14.1343 111.329 15.3201ZM86.4215 28.3161L82.9848 28.316L82.9848 31.8172L81.3579 31.8172L81.3581 23.4743L82.985 23.4743L82.9849 26.7932L86.4216 26.7933L86.4216 23.4744L88.0618 23.4744L88.0617 31.8173L86.4214 31.8173L86.4215 28.3161ZM89.0955 28.7065C89.0955 26.8847 90.4491 25.4007 92.2455 25.4008C94.0286 25.4008 95.3821 26.7804 95.382 28.5765C95.382 28.7719 95.369 28.993 95.3429 29.0974L90.7226 29.0973C90.8785 29.9691 91.5425 30.594 92.5057 30.594C93.1302 30.5941 93.6638 30.3208 94.0285 29.9434L94.8484 31.0236C94.3797 31.5703 93.4948 31.9998 92.4404 31.9998C90.5011 31.9997 89.0954 30.5157 89.0955 28.7065ZM90.7484 28.095L93.7552 28.0951C93.5729 27.2099 93.0132 26.7543 92.2712 26.7543C91.4774 26.7543 90.9307 27.3012 90.7484 28.095ZM101.079 31.1409C100.624 31.6744 99.9861 31.9999 99.1792 31.9999C97.5263 31.9999 96.1855 30.646 96.1856 28.7067C96.1856 26.8196 97.4482 25.4009 99.1794 25.4009C99.9993 25.4009 100.637 25.7003 101.08 26.2078L101.08 25.5833L102.68 25.5833L102.68 31.8176L101.079 31.8176L101.079 31.1409ZM101.079 28.6937C101.08 27.6918 100.39 26.8976 99.4396 26.8976C98.4765 26.8976 97.7736 27.6918 97.7736 28.6937C97.7736 29.6959 98.4764 30.5028 99.4395 30.5029C100.39 30.5029 101.079 29.696 101.079 28.6937ZM104.03 22.8629L105.618 22.8629L105.617 30.9289L105.617 31.8177L104.029 31.8177L104.03 22.8629ZM106.681 25.5834L107.787 25.5834L107.787 23.9696L109.375 23.9696L109.375 25.5834L111.067 25.5835L111.067 26.9892L109.388 26.9891L109.388 29.6313C109.388 30.217 109.636 30.5031 110.104 30.5031C110.39 30.5031 110.677 30.373 110.833 30.191L111.549 31.3752C111.197 31.7138 110.612 32.0001 109.844 32.0001C108.581 32.0001 107.774 31.2059 107.774 29.6831L107.774 26.9891L106.681 26.9891L106.681 25.5834ZM114.118 31.8179L112.53 31.8179L112.53 22.8631L114.118 22.8631L114.118 26.1951C114.508 25.6876 115.107 25.4012 115.875 25.4012C117.32 25.4013 118.244 26.4166 118.244 28.0434L118.243 31.818L116.656 31.8179L116.656 28.2779C116.656 27.4319 116.161 26.898 115.393 26.8979C114.599 26.8979 114.118 27.4318 114.118 28.2779L114.118 31.8179ZM118.878 20.0352C118.828 19.9649 118.723 19.9046 118.605 19.9046C118.473 19.9046 118.39 19.9629 118.39 20.0524C118.39 20.2946 119.005 20.1847 119.005 20.5759C119.005 20.7701 118.847 20.9007 118.602 20.9007C118.395 20.9007 118.262 20.82 118.186 20.7133L118.298 20.6086C118.371 20.7049 118.478 20.7545 118.603 20.7545C118.754 20.7545 118.84 20.6894 118.84 20.5863C118.84 20.3185 118.226 20.4368 118.226 20.0576C118.226 19.8806 118.382 19.7587 118.61 19.7587C118.782 19.7587 118.921 19.8343 118.988 19.929L118.878 20.0352ZM119.332 20.0264V20.88H119.178V19.7795H119.356L119.753 20.4096L120.148 19.7795H120.306V20.88H120.151V20.0264L119.742 20.6638L119.332 20.0264Z" fill="#3D3D3D"/>
</svg>
