<?xml version="1.0" encoding="UTF-8"?>
<svg width="80px" height="80px" viewBox="0 0 80 80" version="1.1" xmlns="http://www.w3.org/2000/svg" xmlns:xlink="http://www.w3.org/1999/xlink">
    <!-- Generator: Sketch 45.2 (43514) - http://www.bohemiancoding.com/sketch -->
    <title>logo-nr</title>
    <desc>Created with Sketch.</desc>
    <defs></defs>
    <g id="Page-1" stroke="none" stroke-width="1" fill="none" fill-rule="evenodd">
        <g id="Mobile-Portrait" transform="translate(-120.000000, -194.000000)">
            <g id="logo-nr" transform="translate(120.000000, 194.000000)">
                <path d="M9.69696971e-05,39.9471515 C9.69696971e-05,17.8850909 17.8849455,0 39.9470061,0 C62.0093091,0 79.8941576,17.8850909 79.8941576,39.9471515 C79.8941576,62.0094545 62.0093091,79.894303 39.9470061,79.894303 C17.8849455,79.894303 9.69696971e-05,62.0094545 9.69696971e-05,39.9471515" id="Fill-1" fill="#F4F4F4"></path>
                <path d="M42.3713212,42.3713939 L42.3713212,24.9168485 L54.9773818,24.9168485 L54.9773818,54.9774545 L42.3713212,42.3713939 Z M24.9167758,54.9774545 L24.9167758,28.3452121 L51.5487758,54.9774545 L24.9167758,54.9774545 Z M39.9470788,22.4926061 L39.9470788,39.9471515 L22.4925333,22.4926061 L22.4925333,57.401697 L57.4016242,57.401697 L57.4016242,22.4926061 L39.9470788,22.4926061 Z" id="Fill-3" fill="#191919"></path>
            </g>
        </g>
    </g>
</svg>