<svg width="17" height="17" viewBox="0 0 17 17" fill="none" xmlns="http://www.w3.org/2000/svg">
<g clip-path="url(#clip0_349_3471)">
<g clip-path="url(#clip1_349_3471)">
<path d="M15.7299 0.239258H2.09556C1.44243 0.239258 0.914307 0.754883 0.914307 1.39238V15.083C0.914307 15.7205 1.44243 16.2393 2.09556 16.2393H15.7299C16.3831 16.2393 16.9143 15.7205 16.9143 15.0861V1.39238C16.9143 0.754883 16.3831 0.239258 15.7299 0.239258ZM5.66118 13.8736H3.28618V6.23613H5.66118V13.8736ZM4.47368 5.19551C3.71118 5.19551 3.09556 4.57988 3.09556 3.82051C3.09556 3.06113 3.71118 2.44551 4.47368 2.44551C5.23306 2.44551 5.84868 3.06113 5.84868 3.82051C5.84868 4.57676 5.23306 5.19551 4.47368 5.19551ZM14.5487 13.8736H12.1768V10.1611C12.1768 9.27676 12.1612 8.13613 10.9424 8.13613C9.70806 8.13613 9.52056 9.10176 9.52056 10.0986V13.8736H7.15181V6.23613H9.42681V7.27988H9.45806C9.77368 6.67988 10.5487 6.04551 11.7018 6.04551C14.1049 6.04551 14.5487 7.62676 14.5487 9.68301V13.8736V13.8736Z" fill="black"/>
</g>
</g>
<defs>
<clipPath id="clip0_349_3471">
<rect width="16" height="16" fill="white" transform="translate(0.914307 0.239258)"/>
</clipPath>
<clipPath id="clip1_349_3471">
<rect width="16" height="16" fill="white" transform="translate(0.914307 0.239258)"/>
</clipPath>
</defs>
</svg>
