<svg width="17" height="17" viewBox="0 0 17 17" fill="none" xmlns="http://www.w3.org/2000/svg">
<g clip-path="url(#clip0_349_3470)">
<path fill-rule="evenodd" clip-rule="evenodd" d="M8.91431 0.239258C4.49782 0.239258 0.914307 3.82277 0.914307 8.23926C0.914307 12.6558 4.49782 16.2393 8.91431 16.2393C13.3221 16.2393 16.9143 12.6558 16.9143 8.23926C16.9143 3.82277 13.3221 0.239258 8.91431 0.239258ZM14.1985 3.92689C15.1529 5.08958 15.7256 6.57331 15.743 8.17851C15.5174 8.13516 13.2614 7.67526 10.9881 7.96161C10.936 7.84881 10.8926 7.72731 10.8406 7.60586C10.7017 7.27616 10.5456 6.93776 10.3894 6.61671C12.9056 5.59286 14.051 4.11778 14.1985 3.92689ZM8.91431 1.4193C10.6497 1.4193 12.2375 2.07006 13.4436 3.13731C13.3221 3.31084 12.2896 4.69045 9.86006 5.60151C8.74076 3.54511 7.50001 1.86182 7.30911 1.60151C7.82101 1.48004 8.35901 1.4193 8.91431 1.4193ZM6.00761 2.06138C6.18981 2.30433 7.40456 3.99631 8.54121 6.00931C5.34815 6.85966 2.52819 6.84231 2.2245 6.84231C2.66702 4.72516 4.09869 2.96377 6.00761 2.06138ZM2.077 8.24796C2.077 8.17851 2.077 8.10911 2.077 8.03971C2.37201 8.04836 5.68654 8.09176 9.09651 7.06791C9.29611 7.44966 9.47831 7.84011 9.65186 8.23056C9.56506 8.25661 9.46961 8.28266 9.38286 8.30866C5.86008 9.44531 3.98589 12.5516 3.82971 12.8119C2.74511 11.6059 2.077 10.0007 2.077 8.24796ZM8.91431 15.0766C7.33511 15.0766 5.87743 14.5386 4.72342 13.6362C4.84489 13.3846 6.23316 10.7122 10.0857 9.36726C10.103 9.35856 10.1117 9.35856 10.1291 9.34991C11.0922 11.8401 11.4827 13.9312 11.5868 14.5299C10.7625 14.8857 9.86006 15.0766 8.91431 15.0766ZM12.7234 13.9052C12.654 13.4887 12.2896 11.4931 11.3959 9.03751C13.5391 8.69911 15.4132 9.25446 15.6475 9.33256C15.3525 11.2328 14.2592 12.8727 12.7234 13.9052Z" fill="black"/>
</g>
<defs>
<clipPath id="clip0_349_3470">
<rect width="16" height="16" fill="white" transform="translate(0.914307 0.239258)"/>
</clipPath>
</defs>
</svg>
