<svg width="46" height="25" viewBox="0 0 46 25" fill="none" xmlns="http://www.w3.org/2000/svg">
<g clip-path="url(#clip0_349_3469)">
<path d="M1.43882 14.2373L5.98185 22.2194C6.69241 23.468 8.0186 24.2393 9.45344 24.2393H19.3237C20.093 24.2393 20.5738 23.4056 20.1891 22.7393L16.7238 16.7396C16.5452 16.4309 16.2156 16.2397 15.8584 16.2397H12.3394C11.9772 16.2397 11.6425 16.0434 11.4665 15.726L9.79935 12.7261C9.63077 12.4236 9.63077 12.0561 9.79935 11.7537L11.4665 8.75382C11.6425 8.43633 11.9772 8.24009 12.3394 8.24009H15.8522C16.2093 8.24009 16.539 8.43008 16.7176 8.74007L24.5087 22.2406C25.223 23.478 26.5417 24.2393 27.969 24.2393H37.18C38.6011 24.2393 39.916 23.483 40.6316 22.2544L45.2932 14.2548C46.0188 13.0098 46.0188 11.4699 45.2932 10.2237L40.6316 2.22415C39.916 0.995468 38.6023 0.239258 37.18 0.239258H27.4083C26.6391 0.239258 26.1583 1.07296 26.5429 1.73918L30.0082 7.73887C30.1868 8.0476 30.5165 8.23884 30.8736 8.23884H34.2865C34.6387 8.23884 34.9659 8.42508 35.1457 8.72882L36.9252 11.7287C37.1113 12.0436 37.1113 12.4349 36.9252 12.7499L35.1457 15.7497C34.9659 16.0534 34.6387 16.2397 34.2865 16.2397H30.8462C30.489 16.2397 30.1581 16.0484 29.9808 15.7385L22.2184 2.24415C21.5041 1.00297 20.1841 0.239258 18.7543 0.239258H9.55834C8.13349 0.239258 6.81728 0.997968 6.10174 2.23165L1.4538 10.2487C0.739505 11.4799 0.73451 12.9986 1.43882 14.236V14.2373Z" fill="black"/>
</g>
<defs>
<clipPath id="clip0_349_3469">
<rect width="44.9231" height="24" fill="white" transform="translate(0.914307 0.239258)"/>
</clipPath>
</defs>
</svg>
