<?xml version="1.0" encoding="UTF-8" standalone="no"?>
<svg width="386px" height="78px" viewBox="0 0 386 78" version="1.1" xmlns="http://www.w3.org/2000/svg" xmlns:xlink="http://www.w3.org/1999/xlink" xmlns:sketch="http://www.bohemiancoding.com/sketch/ns">
    <!-- Generator: Sketch 3.0.4 (8053) - http://www.bohemiancoding.com/sketch -->
    <title>dv-logo</title>
    <desc>Created with Sketch.</desc>
    <defs></defs>
    <g id="Page-1" stroke="none" stroke-width="1" fill="none" fill-rule="evenodd" sketch:type="MSPage">
        <g id="dv-web" sketch:type="MSArtboardGroup" transform="translate(-527.000000, -391.000000)" fill="#FFFFFF">
            <g id="dv-logo" sketch:type="MSLayerGroup" transform="translate(527.000000, 392.000000)">
                <path d="M104.010928,-0.419658182 L78.7890562,42.8174327 L65.7708285,20.0768509 L63.8106078,16.6527055 C57.7348854,7.22870545 47.5628925,0.731396364 36.0172342,-0.263512727 C34.9924797,-0.350567273 33.9567359,-0.398930909 32.9127502,-0.398930909 L32.9127502,-0.419658182 L0.290942349,-0.419658182 L0.290942349,74.0492873 L32.6421381,74.0492873 C44.690558,74.0492873 55.4394904,68.2318327 62.2267715,59.2458691 L54.4751772,36.8244873 L54.1990705,36.3353236 C54.2031915,36.4956145 54.2114335,36.65176 54.2114335,36.8120509 C54.2114335,48.7744509 44.5353338,58.9004145 32.6421381,58.9004145 L15.346316,58.9004145 L15.346316,14.7292145 L32.6421381,14.7292145 C39.352494,14.7292145 45.3567858,17.9474691 49.3156897,22.9068145 C50.7401808,24.6907418 78.6475687,74.0119782 78.6475687,74.0119782 L121.368565,-0.419658182 L104.010928,-0.419658182 Z" id="Fill-1" sketch:type="MSShapeGroup"></path>
                <path d="M344.723001,16.6155345 C345.082901,15.6441164 345.567805,14.7873891 346.174965,14.0467345 C346.778004,13.30608 347.515663,12.7118982 348.379698,12.2628073 C349.246481,11.8109527 350.242389,11.5870982 351.366047,11.5870982 C352.463606,11.5870982 353.445777,11.8109527 354.309812,12.2628073 C355.175221,12.7118982 355.911506,13.30608 356.517293,14.0467345 C357.123079,14.7873891 357.590125,15.6358255 357.922552,16.5934255 C358.256353,17.5524073 358.43493,18.5528436 358.46515,19.5974982 L344.008695,19.5974982 C344.124083,18.5818618 344.3631,17.5883345 344.723001,16.6155345 L344.723001,16.6155345 Z M356.039257,29.1762618 C354.915599,30.2209164 353.356488,30.7432436 351.366047,30.7432436 C350.067933,30.7432436 348.956638,30.46688 348.033535,29.9155345 C347.110431,29.3655709 346.346673,28.6691345 345.739513,27.8248436 C345.133727,26.9846982 344.694154,26.0340073 344.419421,24.9741527 C344.146061,23.9142982 344.008695,22.8917527 344.008695,21.9051345 L361.190502,21.9051345 C361.246823,20.3367709 361.105335,18.7918982 360.759172,17.2691345 C360.413008,15.7449891 359.841563,14.3949527 359.050332,13.2190255 C358.256353,12.0430982 357.223357,11.0937891 355.95409,10.3683345 C354.684823,9.64288 353.155933,9.27946182 351.366047,9.27946182 C349.606381,9.27946182 348.08436,9.62077091 346.799983,10.3033891 C345.516979,10.9846255 344.470246,11.8841891 343.663905,13.00208 C342.856189,14.1185891 342.257271,15.38848 341.865777,16.8117527 C341.477029,18.2336436 341.283342,19.6845527 341.283342,21.16448 C341.283342,22.76048 341.477029,24.2777164 341.865777,25.7148073 C342.257271,27.1505164 342.856189,28.4134982 343.663905,29.5023709 C344.470246,30.5898618 345.516979,31.4465891 346.799983,32.0711709 C348.08436,32.6943709 349.606381,33.0066618 351.366047,33.0066618 C354.194424,33.0066618 356.379926,32.3088436 357.922552,30.9173527 C359.465179,29.52448 360.528396,27.5498618 361.105335,24.99488 L358.378609,24.99488 C357.944531,26.7373527 357.167036,28.1302255 356.039257,29.1762618 L356.039257,29.1762618 Z M335.99473,24.6259345 C335.718623,25.7728436 335.273556,26.7953891 334.654033,27.6963345 C334.031762,28.5958982 333.224047,29.32688 332.22814,29.8934255 C331.233606,30.4599709 330.015164,30.7432436 328.571442,30.7432436 C327.273328,30.7432436 326.162033,30.4599709 325.23893,29.8934255 C324.3172,29.32688 323.557563,28.5958982 322.966887,27.6963345 C322.376211,26.7953891 321.942132,25.7728436 321.668773,24.6259345 C321.395414,23.4804073 321.258047,22.3265891 321.258047,21.16448 C321.258047,20.0037527 321.395414,18.8499345 321.668773,17.7030255 C321.942132,16.5574982 322.376211,15.5349527 322.966887,14.6340073 C323.557563,13.7358255 324.3172,13.00208 325.23893,12.4369164 C326.162033,11.8689891 327.273328,11.5870982 328.571442,11.5870982 C330.015164,11.5870982 331.233606,11.8689891 332.22814,12.4369164 C333.224047,13.00208 334.031762,13.7358255 334.654033,14.6340073 C335.273556,15.5349527 335.718623,16.5574982 335.99473,17.7030255 C336.269463,18.8499345 336.405456,20.0037527 336.405456,21.16448 C336.405456,22.3265891 336.269463,23.4804073 335.99473,24.6259345 L335.99473,24.6259345 Z M336.405456,14.1987345 L336.320289,14.1987345 C336.030446,13.3862255 335.61972,12.6745891 335.085364,12.0652073 C334.552381,11.4572073 333.936979,10.9417891 333.246026,10.5203345 C332.553698,10.1002618 331.810545,9.78797091 331.01794,9.58346182 C330.223962,9.38171636 329.409378,9.27946182 328.571442,9.27946182 C326.870844,9.27946182 325.39278,9.60004364 324.13725,10.2370618 C322.88172,10.8768436 321.834986,11.7390982 320.998424,12.8279709 C320.160488,13.9168436 319.540965,15.1784436 319.138481,16.6155345 C318.73325,18.0526255 318.532695,19.5698618 318.532695,21.16448 C318.532695,22.76048 318.73325,24.2777164 319.138481,25.7148073 C319.540965,27.1505164 320.160488,28.4134982 320.998424,29.5023709 C321.834986,30.5898618 322.88172,31.4465891 324.13725,32.0711709 C325.39278,32.6943709 326.870844,33.0066618 328.571442,33.0066618 C329.379157,33.0066618 330.195115,32.8892073 331.01794,32.6584436 C331.839392,32.4249164 332.612766,32.1001891 333.33394,31.6787345 C334.052367,31.2586618 334.696616,30.7432436 335.257072,30.13248 C335.821648,29.52448 336.247485,28.85568 336.534581,28.1302255 L336.623869,28.1302255 L336.623869,32.39728 L339.132182,32.39728 L339.132182,1.31328 L336.405456,1.31328 L336.405456,14.1987345 Z M302.735542,23.6904436 C302.735542,24.7931345 302.525371,25.7797527 302.107777,26.6502982 C301.688809,27.5222255 301.125606,28.2614982 300.419542,28.87088 C299.71073,29.4802618 298.88241,29.9445527 297.93046,30.2637527 C296.977136,30.5829527 295.982602,30.7432436 294.944111,30.7432436 C294.310851,30.7432436 293.691328,30.6409891 293.084168,30.4378618 C292.478381,30.2347345 291.944026,29.9376436 291.482474,29.5452073 C291.020922,29.1527709 290.654154,28.6898618 290.376673,28.1523345 C290.103314,27.6161891 289.967321,26.9985164 289.967321,26.30208 C289.967321,25.1993891 290.291506,24.3509527 290.94125,23.7553891 C291.58962,23.1598255 292.419314,22.7038255 293.430332,22.3846255 C294.439976,22.0640436 295.55814,21.8263709 296.784823,21.6646982 C298.010132,21.5057891 299.198353,21.3247709 300.354979,21.1216436 C300.728616,21.0636073 301.162695,20.9627345 301.653093,20.8162618 C302.142118,20.6725527 302.474545,20.4404073 302.649001,20.1198255 L302.735542,20.1198255 L302.735542,23.6904436 Z M305.460894,28.4356073 L305.460894,16.5063709 C305.460894,14.9974255 305.216381,13.7703709 304.725983,12.8279709 C304.234211,11.8841891 303.600951,11.1518255 302.820709,10.6294982 C302.043214,10.1071709 301.162695,9.75066182 300.180524,9.56273455 C299.198353,9.37480727 298.21893,9.27946182 297.238132,9.27946182 C295.938645,9.27946182 294.755919,9.42593455 293.691328,9.71473455 C292.622616,10.0062982 291.692645,10.4553891 290.897293,11.0633891 C290.103314,11.6741527 289.475549,12.4576436 289.013997,13.4166255 C288.552446,14.3728436 288.279086,15.5045527 288.193919,16.8117527 L290.919271,16.8117527 C290.978339,14.9822255 291.555278,13.6542982 292.65009,12.8279709 C293.747648,12.0002618 295.16115,11.5870982 296.891969,11.5870982 C297.699684,11.5870982 298.4552,11.6520436 299.164011,11.7833164 C299.870075,11.9145891 300.492346,12.1536436 301.025328,12.50048 C301.559684,12.8486982 301.978652,13.32128 302.282232,13.9168436 C302.581691,14.5124073 302.735542,15.2724073 302.735542,16.2009891 C302.735542,16.8117527 302.654495,17.3050618 302.496524,17.6809164 C302.338552,18.0595345 302.114645,18.3566255 301.824801,18.5749527 C301.539079,18.7918982 301.176431,18.94528 300.743727,19.0309527 C300.312396,19.1193891 299.805513,19.1912436 299.228574,19.24928 C297.758752,19.4233891 296.306787,19.6044073 294.879549,19.7937164 C293.45231,19.9830255 292.166559,20.3091345 291.026417,20.7734255 C289.886275,21.2377164 288.971414,21.9120436 288.279086,22.7977891 C287.586759,23.6821527 287.240595,24.9092073 287.240595,26.4761891 C287.240595,27.6078982 287.437029,28.5876073 287.825777,29.4153164 C288.214524,30.2416436 288.74888,30.9242618 289.42747,31.4604073 C290.103314,31.9993164 290.897293,32.3903709 291.808033,32.6363345 C292.717399,32.8822982 293.691328,33.0066618 294.728446,33.0066618 C295.823257,33.0066618 296.768339,32.9044073 297.562317,32.7026618 C298.356296,32.4981527 299.06236,32.2079709 299.684631,31.8321164 C300.304154,31.4534982 300.867357,30.9809164 301.371492,30.4157527 C301.877001,29.8505891 302.372894,29.2038982 302.863293,28.4784436 L302.952581,28.4784436 C302.952581,29.0601891 302.986922,29.5894255 303.059727,30.0675345 C303.132531,30.5470255 303.28226,30.9601891 303.513036,31.3084073 C303.743812,31.6580073 304.067997,31.92608 304.486965,32.1140073 C304.905933,32.3033164 305.460894,32.39728 306.153221,32.39728 C306.528232,32.39728 306.840054,32.38208 307.084567,32.3544436 C307.327705,32.3254255 307.609307,32.2812073 307.929371,32.2231709 L307.929371,29.9155345 C307.668374,30.0316073 307.378531,30.0896436 307.062588,30.0896436 C305.99525,30.0896436 305.460894,29.53968 305.460894,28.4356073 L305.460894,28.4356073 Z M282.446502,5.70884364 L285.171855,5.70884364 L285.171855,1.31189818 L282.446502,1.31189818 L282.446502,5.70884364 Z M282.446502,32.39728 L285.171855,32.39728 L285.171855,9.93306182 L282.446502,9.93306182 L282.446502,32.39728 Z M273.166019,15.2005527 L273.080851,15.2005527 L273.080851,9.93306182 L270.572538,9.93306182 L270.572538,32.39728 L273.29789,32.39728 L273.29789,20.4252073 C273.29789,19.2354618 273.498446,18.13968 273.903677,17.1378618 C274.306161,16.1360436 274.877606,15.2724073 275.612517,14.5469527 C276.348801,13.82288 277.219705,13.2632436 278.232097,12.8708073 C279.240367,12.4797527 280.366773,12.3125527 281.607193,12.3705891 L281.607193,9.62768 C279.586531,9.54062545 277.84747,9.99109818 276.391385,10.9777164 C274.933926,11.9643345 273.861093,13.3710255 273.166019,15.2005527 L273.166019,15.2005527 Z M265.2592,24.6687709 C264.926773,25.81568 264.436374,26.8382255 263.789378,27.7391709 C263.139634,28.6387345 262.325051,29.3655709 261.34288,29.9155345 C260.360709,30.46688 259.223314,30.7432436 257.923826,30.7432436 C256.625712,30.7432436 255.48557,30.46688 254.503399,29.9155345 C253.523976,29.3655709 252.709392,28.6387345 252.059648,27.7391709 C251.409905,26.8382255 250.919506,25.81568 250.587079,24.6687709 C250.256026,23.5232436 250.089812,22.3542255 250.089812,21.16448 C250.089812,19.9761164 250.256026,18.8070982 250.587079,17.6601891 C250.919506,16.5146618 251.409905,15.4921164 252.059648,14.5911709 C252.709392,13.6916073 253.523976,12.9647709 254.503399,12.4148073 C255.48557,11.8634618 256.625712,11.5870982 257.923826,11.5870982 C259.223314,11.5870982 260.360709,11.8634618 261.34288,12.4148073 C262.325051,12.9647709 263.139634,13.6916073 263.789378,14.5911709 C264.436374,15.4921164 264.926773,16.5146618 265.2592,17.6601891 C265.590253,18.8070982 265.756467,19.9761164 265.756467,21.16448 C265.756467,22.3542255 265.590253,23.5232436 265.2592,24.6687709 L265.2592,24.6687709 Z M265.756467,12.8058618 C264.862211,11.7321891 263.760531,10.8768436 262.445933,10.2370618 C261.132709,9.60004364 259.625798,9.27946182 257.923826,9.27946182 C256.220481,9.27946182 254.71357,9.60004364 253.40172,10.2370618 C252.088495,10.8768436 250.984068,11.7321891 250.089812,12.8058618 C249.19693,13.8809164 248.518339,15.1356073 248.056787,16.5726982 C247.595236,18.0084073 247.36446,19.5394618 247.36446,21.16448 C247.36446,22.79088 247.595236,24.3205527 248.056787,25.7576436 C248.518339,27.1947345 249.19693,28.4494255 250.089812,29.52448 C250.984068,30.5981527 252.088495,31.4465891 253.40172,32.0711709 C254.71357,32.6943709 256.220481,33.0066618 257.923826,33.0066618 C259.625798,33.0066618 261.132709,32.6943709 262.445933,32.0711709 C263.760531,31.4465891 264.862211,30.5981527 265.756467,29.52448 C266.652097,28.4494255 267.32794,27.1947345 267.792239,25.7576436 C268.253791,24.3205527 268.484567,22.79088 268.484567,21.16448 C268.484567,19.5394618 268.253791,18.0084073 267.792239,16.5726982 C267.32794,15.1356073 266.652097,13.8809164 265.756467,12.8058618 L265.756467,12.8058618 Z M243.58688,29.5023709 C243.33962,28.9938618 243.218737,28.2905164 243.218737,27.3909527 L243.218737,12.2393164 L247.764196,12.2393164 L247.764196,9.93306182 L243.218737,9.93306182 L243.218737,3.18426182 L240.490638,3.18426182 L240.490638,9.93306182 L236.59767,9.93306182 L236.59767,12.2393164 L240.490638,12.2393164 L240.490638,27.6078982 C240.464538,29.52448 240.810702,30.8372073 241.531876,31.5488436 C242.250303,32.2590982 243.522317,32.6142255 245.338303,32.6142255 C245.743535,32.6142255 246.146019,32.5990255 246.55125,32.5713891 C246.953734,32.5409891 247.358965,32.5285527 247.764196,32.5285527 L247.764196,30.2209164 C246.983954,30.3065891 246.205086,30.3508073 245.424844,30.3508073 C244.445421,30.2927709 243.831392,30.0094982 243.58688,29.5023709 L243.58688,29.5023709 Z M232.884652,32.39728 L235.610004,32.39728 L235.610004,1.31328 L232.884652,1.31328 L232.884652,32.39728 Z M227.035584,21.7310255 C227.035584,22.8627345 226.90646,23.9723345 226.646837,25.0612073 C226.387214,26.1486982 225.98473,27.1159709 225.43389,27.9561164 C224.887172,28.7976436 224.194844,29.4733527 223.356908,29.98048 C222.520346,30.4889891 221.512075,30.7432436 220.327976,30.7432436 C218.163079,30.7432436 216.642431,30.2209164 215.761912,29.1762618 C214.882766,28.1302255 214.412972,26.5936436 214.356652,24.5609891 L214.356652,9.93306182 L211.627179,9.93306182 L211.627179,24.5167709 C211.627179,25.8529891 211.772787,27.0427345 212.062631,28.0873891 C212.349727,29.1320436 212.805784,30.0177891 213.425307,30.7432436 C214.04483,31.4686982 214.852545,32.0269527 215.848453,32.4193891 C216.842986,32.8104436 218.047691,33.0066618 219.461193,33.0066618 C221.135691,33.0066618 222.657712,32.6073164 224.028631,31.8086255 C225.399549,31.0113164 226.444908,29.8574982 227.167456,28.3485527 L227.252623,28.3485527 L227.252623,32.39728 L229.76231,32.39728 L229.76231,9.93306182 L227.035584,9.93306182 L227.035584,21.7310255 Z M207.81251,21.9051345 C207.221833,21.4118255 206.543243,21.01248 205.779485,20.70848 C205.014353,20.4030982 204.240979,20.1930618 203.463485,20.0769891 L199.828766,19.24928 C199.367214,19.1332073 198.861705,18.9812073 198.312239,18.7918982 C197.76552,18.6025891 197.260011,18.3649164 196.79846,18.0747345 C196.338282,17.7845527 195.953656,17.4280436 195.651449,17.0065891 C195.350616,16.5865164 195.196766,16.0710982 195.196766,15.4617164 C195.196766,14.7376436 195.356111,14.12688 195.674801,13.6335709 C195.992118,13.13888 196.409712,12.7409164 196.927584,12.4369164 C197.448204,12.1315345 198.016901,11.9145891 198.636424,11.7833164 C199.258695,11.6520436 199.871349,11.5870982 200.477136,11.5870982 C201.256004,11.5870982 201.993663,11.6824436 202.68599,11.8689891 C203.378317,12.0582982 203.989599,12.3567709 204.522581,12.7630255 C205.056937,13.16928 205.484147,13.6846982 205.80009,14.3078982 C206.117406,14.93248 206.291862,15.6662255 206.320709,16.5063709 L209.046061,16.5063709 C208.986994,15.2876073 208.743855,14.2277527 208.31115,13.3281891 C207.877072,12.4300073 207.294638,11.6741527 206.556979,11.0633891 C205.822068,10.4553891 204.971769,10.0062982 204.006083,9.71473455 C203.036275,9.42593455 201.993663,9.27946182 200.865883,9.27946182 C199.885086,9.27946182 198.897421,9.39553455 197.901513,9.62768 C196.906979,9.85982545 196.004481,10.2232436 195.196766,10.7151709 C194.390424,11.2098618 193.732438,11.8634618 193.228303,12.6745891 C192.724168,13.48848 192.471414,14.4598982 192.471414,15.5929891 C192.471414,16.5492073 192.629385,17.3548073 192.946702,18.0084073 C193.262645,18.6606255 193.704965,19.2133527 194.266794,19.6624436 C194.829997,20.1129164 195.483862,20.4901527 196.235257,20.7941527 C196.986652,21.0995345 197.808104,21.3676073 198.703734,21.5997527 L202.207954,22.3846255 C202.813741,22.5297164 203.412659,22.7038255 204.006083,22.9069527 C204.595385,23.11008 205.121499,23.3643345 205.583051,23.6683345 C206.044602,23.9723345 206.411371,24.3509527 206.688851,24.8000436 C206.962211,25.2505164 207.098204,25.8087709 207.098204,26.4761891 C207.098204,27.25968 206.903143,27.9215709 206.514396,28.4563345 C206.125648,28.9938618 205.628381,29.4360436 205.022595,29.7842618 C204.415435,30.13248 203.758823,30.3798255 203.052759,30.5249164 C202.345321,30.6713891 201.661236,30.7432436 200.997755,30.7432436 C199.179022,30.7432436 197.657001,30.2720436 196.431691,29.32688 C195.205008,28.3858618 194.534659,26.9846982 194.419271,25.1261527 L191.691172,25.1261527 C191.921947,27.8842618 192.851919,29.8865164 194.483833,31.1342982 C196.111627,32.38208 198.239435,33.0066618 200.865883,33.0066618 C201.904374,33.0066618 202.959349,32.8892073 204.026688,32.6584436 C205.092652,32.4249164 206.052844,32.0421527 206.903143,31.5046255 C207.756189,30.96848 208.454011,30.2720436 209.003478,29.4153164 C209.55157,28.5599709 209.82493,27.5222255 209.82493,26.30208 C209.82493,25.3154618 209.636737,24.4601164 209.264474,23.73328 C208.88809,23.0078255 208.403186,22.3998255 207.81251,21.9051345 L207.81251,21.9051345 Z M188.178709,11.6092073 C187.542702,10.8685527 186.700645,10.29648 185.64567,9.88884364 C184.593442,9.48258909 183.28846,9.27946182 181.730723,9.27946182 C180.142766,9.27946182 178.68668,9.69262545 177.358346,10.5203345 C176.031385,11.3466618 175.106908,12.4424436 174.589036,13.80768 L174.502495,13.80768 L174.502495,9.93306182 L171.775769,9.93306182 L171.775769,32.39728 L174.502495,32.39728 L174.502495,19.2921164 C174.531342,18.1908073 174.711293,17.16688 175.04372,16.22448 C175.376147,15.2806982 175.837698,14.4668073 176.427001,13.7855709 C177.020424,13.1043345 177.740225,12.5654255 178.593271,12.1743709 C179.44357,11.7833164 180.417499,11.5870982 181.513684,11.5870982 C182.608495,11.5870982 183.526104,11.7612073 184.261015,12.1094255 C184.9973,12.4576436 185.581107,12.9371345 186.013812,13.5451345 C186.44789,14.1558982 186.75147,14.8730618 186.923179,15.7007709 C187.097634,16.52848 187.182801,17.4211345 187.182801,18.3773527 L187.182801,32.39728 L189.909527,32.39728 L189.909527,17.9434618 C189.909527,16.6086255 189.780403,15.40368 189.52078,14.3300073 C189.259784,13.2563345 188.811969,12.34848 188.178709,11.6092073 L188.178709,11.6092073 Z M166.481663,24.6687709 C166.150609,25.81568 165.660211,26.8382255 165.011841,27.7391709 C164.362097,28.6387345 163.54614,29.3655709 162.565342,29.9155345 C161.584545,30.46688 160.445777,30.7432436 159.146289,30.7432436 C157.848175,30.7432436 156.708033,30.46688 155.727236,29.9155345 C154.746438,29.3655709 153.930481,28.6387345 153.282111,27.7391709 C152.632367,26.8382255 152.141969,25.81568 151.810915,24.6687709 C151.478488,23.5232436 151.312275,22.3542255 151.312275,21.16448 C151.312275,19.9761164 151.478488,18.8070982 151.810915,17.6601891 C152.141969,16.5146618 152.632367,15.4921164 153.282111,14.5911709 C153.930481,13.6916073 154.746438,12.9647709 155.727236,12.4148073 C156.708033,11.8634618 157.848175,11.5870982 159.146289,11.5870982 C160.445777,11.5870982 161.584545,11.8634618 162.565342,12.4148073 C163.54614,12.9647709 164.362097,13.6916073 165.011841,14.5911709 C165.660211,15.4921164 166.150609,16.5146618 166.481663,17.6601891 C166.81409,18.8070982 166.980303,19.9761164 166.980303,21.16448 C166.980303,22.3542255 166.81409,23.5232436 166.481663,24.6687709 L166.481663,24.6687709 Z M166.980303,12.8058618 C166.084673,11.7321891 164.98162,10.8768436 163.669769,10.2370618 C162.355172,9.60004364 160.849634,9.27946182 159.146289,9.27946182 C157.442944,9.27946182 155.936033,9.60004364 154.622809,10.2370618 C153.310958,10.8768436 152.207905,11.7321891 151.312275,12.8058618 C150.419392,13.8809164 149.740801,15.1356073 149.27925,16.5726982 C148.817698,18.0084073 148.586922,19.5394618 148.586922,21.16448 C148.586922,22.79088 148.817698,24.3205527 149.27925,25.7576436 C149.740801,27.1947345 150.419392,28.4494255 151.312275,29.52448 C152.207905,30.5981527 153.310958,31.4465891 154.622809,32.0711709 C155.936033,32.6943709 157.442944,33.0066618 159.146289,33.0066618 C160.849634,33.0066618 162.355172,32.6943709 163.669769,32.0711709 C164.98162,31.4465891 166.084673,30.5981527 166.980303,29.52448 C167.874559,28.4494255 168.55315,27.1947345 169.014702,25.7576436 C169.476253,24.3205527 169.707029,22.79088 169.707029,21.16448 C169.707029,19.5394618 169.476253,18.0084073 169.014702,16.5726982 C168.55315,15.1356073 167.874559,13.8809164 166.980303,12.8058618 L166.980303,12.8058618 Z M144.397243,26.9114618 C144.023606,27.6963345 143.54557,28.3706618 142.968631,28.9358255 C142.391691,29.5023709 141.729584,29.9445527 140.978189,30.2637527 C140.228168,30.5829527 139.435563,30.7432436 138.597627,30.7432436 C137.299513,30.7432436 136.159371,30.46688 135.178574,29.9155345 C134.197777,29.3655709 133.381819,28.6387345 132.733449,27.7391709 C132.083705,26.8382255 131.593307,25.81568 131.262253,24.6687709 C130.929826,23.5232436 130.763613,22.3542255 130.763613,21.16448 C130.763613,19.9761164 130.929826,18.8070982 131.262253,17.6601891 C131.593307,16.5146618 132.083705,15.4921164 132.733449,14.5911709 C133.381819,13.6916073 134.197777,12.9647709 135.178574,12.4148073 C136.159371,11.8634618 137.299513,11.5870982 138.597627,11.5870982 C140.41636,11.5870982 141.828488,12.0652073 142.839506,13.0228073 C143.84915,13.9817891 144.540104,15.3028073 144.916488,16.9858618 L147.643214,16.9858618 C147.325898,14.4018618 146.338232,12.4728436 144.678844,11.1946618 C143.019456,9.91786182 140.991926,9.27946182 138.597627,9.27946182 C136.894282,9.27946182 135.387371,9.60004364 134.074147,10.2370618 C132.762296,10.8768436 131.659243,11.7321891 130.763613,12.8058618 C129.87073,13.8809164 129.19214,15.1356073 128.730588,16.5726982 C128.269036,18.0084073 128.03826,19.5394618 128.03826,21.16448 C128.03826,22.79088 128.269036,24.3205527 128.730588,25.7576436 C129.19214,27.1947345 129.87073,28.4494255 130.763613,29.52448 C131.659243,30.5981527 132.762296,31.4465891 134.074147,32.0711709 C135.387371,32.6943709 136.894282,33.0066618 138.597627,33.0066618 C141.136161,33.0066618 143.214517,32.24528 144.829947,30.7211345 C146.445378,29.1969891 147.441285,27.0703709 147.816296,24.3426618 L145.090944,24.3426618 C145.003029,25.2726255 144.77088,26.1279709 144.397243,26.9114618 L144.397243,26.9114618 Z" id="Fill-3" sketch:type="MSShapeGroup"></path>
                <path d="M379.308738,58.2819127 C379.134283,59.13864 378.838944,59.9083127 378.42135,60.5895491 C378.002382,61.2721673 377.439179,61.8166036 376.733115,62.2228582 C376.024304,62.6291127 375.1534,62.83224 374.114909,62.83224 C373.076418,62.83224 372.209635,62.6291127 371.517307,62.2228582 C370.82498,61.8166036 370.270019,61.2721673 369.851051,60.5895491 C369.433457,59.9083127 369.138119,59.13864 368.963663,58.2819127 C368.791955,57.4265673 368.702667,56.5477309 368.702667,55.6481673 C368.702667,54.7486036 368.791955,53.86424 368.963663,52.9923127 C369.138119,52.1217673 369.433457,51.3520945 369.851051,50.6846764 C370.270019,50.01864 370.82498,49.4742036 371.517307,49.0527491 C372.209635,48.6326764 373.076418,48.4212582 374.114909,48.4212582 C375.1534,48.4212582 376.024304,48.6326764 376.733115,49.0527491 C377.439179,49.4742036 378.002382,50.01864 378.42135,50.6846764 C378.838944,51.3520945 379.134283,52.1217673 379.308738,52.9923127 C379.480446,53.86424 379.565614,54.7486036 379.565614,55.6481673 C379.565614,56.5477309 379.480446,57.4265673 379.308738,58.2819127 L379.308738,58.2819127 Z M384.888567,50.7510036 C384.341848,49.2848945 383.564354,48.0371127 382.551962,47.0062764 C381.543692,45.9768218 380.325251,45.1781309 378.895265,44.6115855 C377.468026,44.04504 375.874574,43.7631491 374.114909,43.7631491 C372.355243,43.7631491 370.765912,44.04504 369.352411,44.6115855 C367.938909,45.1781309 366.72871,45.9768218 365.716318,47.0062764 C364.708048,48.0371127 363.927806,49.2848945 363.379713,50.7510036 C362.832994,52.2157309 362.559635,53.84904 362.559635,55.6481673 C362.559635,57.4472945 362.832994,59.0723127 363.379713,60.5246036 C363.927806,61.9755127 364.708048,63.2163855 365.716318,64.24584 C366.72871,65.2766764 367.938909,66.0684582 369.352411,66.6184218 C370.765912,67.1711491 372.355243,67.4461309 374.114909,67.4461309 C375.874574,67.4461309 377.468026,67.1711491 378.895265,66.6184218 C380.325251,66.0684582 381.543692,65.2766764 382.551962,64.24584 C383.564354,63.2163855 384.341848,61.9755127 384.888567,60.5246036 C385.439407,59.0723127 385.712767,57.4472945 385.712767,55.6481673 C385.712767,53.84904 385.439407,52.2157309 384.888567,50.7510036 L384.888567,50.7510036 Z M354.340994,58.1741309 C354.340994,58.5223491 354.303905,58.98664 354.231101,59.5670036 C354.158297,60.1473673 353.965984,60.7208218 353.64592,61.2859855 C353.329977,61.8525309 352.838204,62.3389309 352.176098,62.7438036 C351.513991,63.15144 350.574404,63.3545673 349.361457,63.3545673 C348.873806,63.3545673 348.39577,63.3103491 347.934219,63.2232945 C347.472667,63.13624 347.070183,62.98424 346.721272,62.7659127 C346.375108,62.5489673 346.101749,62.2518764 345.901194,61.87464 C345.699265,61.4974036 345.597614,61.0317309 345.597614,60.4803855 C345.597614,59.9000218 345.699265,59.4219127 345.901194,59.0446764 C346.101749,58.6660582 346.369614,58.3551491 346.700667,58.1078036 C347.033094,57.86184 347.421841,57.6656218 347.869656,57.5205309 C348.317471,57.37544 348.772154,57.2593673 349.232332,57.1709309 C349.724105,57.0852582 350.214503,57.0134036 350.706275,56.9539855 C351.193927,56.8959491 351.66372,56.8227127 352.111535,56.73704 C352.556603,56.6486036 352.975571,56.5408218 353.367065,56.4109309 C353.755813,56.2796582 354.081372,56.09864 354.340994,55.8664945 L354.340994,58.1741309 Z M360.4854,61.87464 L360.4854,50.1623491 C360.4854,48.7998764 360.18182,47.7027127 359.576033,46.8750036 C358.971621,46.0472945 358.191379,45.4033673 357.239428,44.9390764 C356.286105,44.4747855 355.235251,44.1624945 354.081372,44.0022036 C352.927493,43.8432945 351.78735,43.7631491 350.660944,43.7631491 C349.420525,43.7631491 348.186973,43.8861309 346.96029,44.1334764 C345.73498,44.37944 344.631927,44.7926036 343.649756,45.3729673 C342.667585,45.9547127 341.85987,46.7230036 341.22661,47.6806036 C340.590603,48.6382036 340.232076,49.8445309 340.145535,51.2940582 L346.289941,51.2940582 C346.405329,50.0766764 346.81056,49.2047491 347.502888,48.6824218 C348.195215,48.1600945 349.147165,47.8989309 350.360112,47.8989309 C350.906831,47.8989309 351.419208,47.93624 351.894496,48.0067127 C352.372532,48.0799491 352.787379,48.2264218 353.150026,48.4433673 C353.509927,48.6603127 353.79977,48.9656945 354.016809,49.3567491 C354.231101,49.7491855 354.340994,50.2784218 354.340994,50.94584 C354.368468,51.58424 354.180275,52.0720218 353.777791,52.40504 C353.37256,52.7380582 352.825841,52.9923127 352.133514,53.1664218 C351.441186,53.3405309 350.647208,53.4718036 349.752952,53.5588582 C348.857322,53.6459127 347.947955,53.7619855 347.024852,53.9070764 C346.101749,54.0521673 345.186888,54.2483855 344.277521,54.4943491 C343.368154,54.7403127 342.560439,55.1120218 341.854375,55.6053309 C341.146937,56.09864 340.569998,56.7577673 340.122183,57.5854764 C339.675742,58.4131855 339.45046,59.4647491 339.45046,60.7415491 C339.45046,61.9022764 339.646895,62.9054764 340.035642,63.7456218 C340.424389,64.5871491 340.966987,65.2835855 341.659315,65.8363127 C342.351642,66.3876582 343.159357,66.7925309 344.081087,67.0550764 C345.006937,67.31624 346.002845,67.4461309 347.070183,67.4461309 C348.454838,67.4461309 349.809272,67.2430036 351.137606,66.8367491 C352.463194,66.4304945 353.61982,65.72024 354.599243,64.7032218 C354.62809,65.08184 354.678916,65.4507855 354.75172,65.8142036 C354.824525,66.1776218 354.917934,66.5327491 355.033322,66.8809673 L361.265642,66.8809673 C360.975799,66.4166764 360.775243,65.72024 360.659856,64.7902764 C360.544468,63.8616945 360.4854,62.8902764 360.4854,61.87464 L360.4854,61.87464 Z M345.794048,39.7793673 C346.037186,39.4463491 346.447912,39.2791491 347.024852,39.2791491 C347.515251,39.2791491 348.007023,39.3523855 348.497421,39.4960945 C348.989194,39.6425673 349.507065,39.8166764 350.056532,40.0184218 C350.604624,40.1925309 351.16508,40.3597309 351.744767,40.5200218 C352.321706,40.6803127 352.941229,40.7590764 353.603336,40.7590764 C354.470119,40.7590764 355.184425,40.5918764 355.747628,40.2588582 C356.310831,39.92584 356.769635,39.5112945 357.130909,39.0179855 C357.490809,38.5246764 357.764169,37.9871491 357.955108,37.4067855 C358.140553,36.8264218 358.306767,36.2902764 358.451001,35.7969673 L355.466026,35.7969673 C355.494873,36.20184 355.363001,36.5569673 355.075905,36.8623491 C354.786062,37.1677309 354.312147,37.3197309 353.64592,37.3197309 C353.155521,37.3197309 352.674738,37.2395855 352.198076,37.0792945 C351.722788,36.9203855 351.252994,36.7393673 350.791443,36.53624 C350.329891,36.3621309 349.873834,36.1963127 349.428767,36.03464 C348.980952,35.8757309 348.511158,35.7969673 348.020759,35.7969673 C347.070183,35.7969673 346.276204,35.9558764 345.640197,36.2750764 C345.006937,36.5942764 344.486318,37.00744 344.081087,37.5159491 C343.679977,38.0244582 343.36266,38.5896218 343.131884,39.2128218 C342.898361,39.8374036 342.712916,40.4688945 342.568681,41.1072945 L345.208866,41.1072945 C345.353101,40.5559491 345.546788,40.1137673 345.794048,39.7793673 L345.794048,39.7793673 Z M331.154895,61.5913673 C330.360916,62.4176945 329.229016,62.83224 327.759194,62.83224 C326.80587,62.83224 325.998154,62.6139127 325.336048,62.17864 C324.671194,61.7433673 324.14508,61.1851127 323.756332,60.5024945 C323.366211,59.8198764 323.08461,59.0584945 322.910154,58.2169673 C322.738446,57.37544 322.650532,56.5477309 322.650532,55.7352218 C322.650532,54.8936945 322.738446,54.0452582 322.910154,53.1871491 C323.08461,52.3318036 323.379948,51.5496945 323.798916,50.8366764 C324.217884,50.1278036 324.756361,49.54744 325.421215,49.0969673 C326.084695,48.6464945 326.908895,48.4212582 327.886944,48.4212582 C330.514767,48.4212582 332.027172,49.7132582 332.432404,52.2958764 L338.447685,52.2958764 C338.361144,50.8449673 338.01498,49.5902764 337.409194,48.52904 C336.803407,47.4705673 336.016297,46.5862036 335.05061,45.8745673 C334.084923,45.1643127 332.987364,44.6336945 331.762055,44.2854764 C330.535372,43.9372582 329.257863,43.7631491 327.930902,43.7631491 C326.113542,43.7631491 324.496738,44.0671491 323.08461,44.6765309 C321.671108,45.2872945 320.471898,46.1357309 319.492475,47.2246036 C318.510304,48.3120945 317.767151,49.6040945 317.263016,51.0992218 C316.75888,52.5943491 316.506126,54.2124582 316.506126,55.9521673 C316.506126,57.5205309 316.736902,58.9645309 317.198453,60.2841673 C317.660005,61.6051855 318.323485,62.7659127 319.188895,63.7677309 C320.05293,64.7681673 321.085927,65.5737673 322.282389,66.1845309 C323.478852,66.7925309 324.815428,67.1711491 326.285251,67.31624 L324.123101,70.4515855 L325.032468,71.49624 C325.55034,71.2917309 326.127279,71.1908582 326.763286,71.1908582 C327.253685,71.1908582 327.664411,71.2848218 327.996838,71.4741309 C328.327891,71.6620582 328.494105,72.0323855 328.494105,72.5837309 C328.494105,73.10744 328.336133,73.4832945 328.018816,73.71544 C327.700126,73.9475855 327.281158,74.0636582 326.763286,74.0636582 C326.011891,74.0636582 325.336048,73.9835127 324.730261,73.8246036 C324.123101,73.6643127 323.588745,73.4832945 323.128567,73.2801673 L322.217827,75.3694764 C322.623058,75.5159491 323.004937,75.6444582 323.366211,75.7619127 C323.726112,75.8766036 324.102496,75.98024 324.491243,76.0659127 C324.879991,76.1543491 325.319564,76.2179127 325.811336,76.2635127 C326.301735,76.3063491 326.892411,76.3284582 327.584738,76.3284582 C328.220745,76.3284582 328.840268,76.2635127 329.446055,76.13224 C330.053215,76.0009673 330.591692,75.7688218 331.069727,75.4358036 C331.545016,75.1014036 331.928268,74.6523127 332.215364,74.0857673 C332.505208,73.5192218 332.649443,72.8158764 332.649443,71.9743491 C332.649443,71.4520218 332.534055,70.99464 332.303279,70.6022036 C332.069756,70.2111491 331.770297,69.8905673 331.393912,69.6459855 C331.018902,69.39864 330.591692,69.21624 330.116404,69.1001673 C329.642489,68.9840945 329.156211,68.9260582 328.66856,68.9260582 C328.032553,68.9260582 327.540781,68.9992945 327.194617,69.1443855 L327.10945,69.1443855 L328.322396,67.4032945 C331.176873,67.31624 333.507984,66.49544 335.311606,64.9422764 C337.113856,63.3904945 338.203172,61.1630036 338.579557,58.2598036 L332.649443,58.2598036 C332.44614,59.6526764 331.948873,60.7636582 331.154895,61.5913673 L331.154895,61.5913673 Z M308.288859,58.1741309 C308.288859,58.5223491 308.250396,58.98664 308.178966,59.5670036 C308.106162,60.1473673 307.912475,60.7208218 307.593784,61.2859855 C307.276468,61.8525309 306.786069,62.3389309 306.123962,62.7438036 C305.460482,63.15144 304.522268,63.3545673 303.309322,63.3545673 C302.820297,63.3545673 302.343635,63.3103491 301.882083,63.2232945 C301.420532,63.13624 301.018048,62.98424 300.669137,62.7659127 C300.322973,62.5489673 300.049614,62.2518764 299.847685,61.87464 C299.64713,61.4974036 299.545478,61.0317309 299.545478,60.4803855 C299.545478,59.9000218 299.64713,59.4219127 299.847685,59.0446764 C300.049614,58.6660582 300.317478,58.3551491 300.647158,58.1078036 C300.980959,57.86184 301.369706,57.6656218 301.817521,57.5205309 C302.265336,57.37544 302.718646,57.2593673 303.180197,57.1709309 C303.670596,57.0852582 304.162368,57.0134036 304.652767,56.9539855 C305.141791,56.8959491 305.611585,56.8227127 306.0594,56.73704 C306.504468,56.6486036 306.923436,56.5408218 307.31493,56.4109309 C307.703678,56.2796582 308.027863,56.09864 308.288859,55.8664945 L308.288859,58.1741309 Z M314.431891,61.87464 L314.431891,50.1623491 C314.431891,48.7998764 314.129685,47.7027127 313.522525,46.8750036 C312.919485,46.0472945 312.139243,45.4033673 311.18592,44.9390764 C310.233969,44.4747855 309.181742,44.1624945 308.027863,44.0022036 C306.875357,43.8432945 305.733841,43.7631491 304.607436,43.7631491 C303.368389,43.7631491 302.133464,43.8861309 300.908154,44.1334764 C299.681471,44.37944 298.578418,44.7926036 297.597621,45.3729673 C296.61545,45.9547127 295.807735,46.7230036 295.174475,47.6806036 C294.538468,48.6382036 294.178567,49.8445309 294.0934,51.2940582 L300.236432,51.2940582 C300.35182,50.0766764 300.757051,49.2047491 301.449379,48.6824218 C302.141706,48.1600945 303.09503,47.8989309 304.306603,47.8989309 C304.854695,47.8989309 305.367073,47.93624 305.842361,48.0067127 C306.319023,48.0799491 306.735243,48.2264218 307.097891,48.4433673 C307.456418,48.6603127 307.746261,48.9656945 307.9633,49.3567491 C308.178966,49.7491855 308.288859,50.2784218 308.288859,50.94584 C308.314959,51.58424 308.12814,52.0720218 307.725656,52.40504 C307.320425,52.7380582 306.772332,52.9923127 306.080005,53.1664218 C305.387678,53.3405309 304.593699,53.4718036 303.700816,53.5588582 C302.805186,53.6459127 301.89582,53.7619855 300.972717,53.9070764 C300.049614,54.0521673 299.134752,54.2483855 298.225386,54.4943491 C297.316019,54.7403127 296.508304,55.1120218 295.80224,55.6053309 C295.093428,56.09864 294.516489,56.7577673 294.068674,57.5854764 C293.623606,58.4131855 293.398325,59.4647491 293.398325,60.7415491 C293.398325,61.9022764 293.594759,62.9054764 293.983507,63.7456218 C294.372254,64.5871491 294.913478,65.2835855 295.605806,65.8363127 C296.298133,66.3876582 297.105848,66.7925309 298.028952,67.0550764 C298.954802,67.31624 299.95071,67.4461309 301.018048,67.4461309 C302.402702,67.4461309 303.757137,67.2430036 305.085471,66.8367491 C306.411058,66.4304945 307.566311,65.72024 308.545735,64.7032218 C308.575955,65.08184 308.626781,65.4507855 308.699585,65.8142036 C308.771016,66.1776218 308.865799,66.5327491 308.981186,66.8809673 L315.213507,66.8809673 C314.923663,66.4166764 314.721735,65.72024 314.606347,64.7902764 C314.490959,63.8616945 314.431891,62.8902764 314.431891,61.87464 L314.431891,61.87464 Z M285.102759,61.5913673 C284.308781,62.4176945 283.17688,62.83224 281.705685,62.83224 C280.753735,62.83224 279.946019,62.6139127 279.283912,62.17864 C278.617685,61.7433673 278.091571,61.1851127 277.702823,60.5024945 C277.314076,59.8198764 277.032475,59.0584945 276.858019,58.2169673 C276.686311,57.37544 276.598396,56.5477309 276.598396,55.7352218 C276.598396,54.8936945 276.686311,54.0452582 276.858019,53.1871491 C277.032475,52.3318036 277.327813,51.5496945 277.745407,50.8366764 C278.164375,50.1278036 278.704226,49.54744 279.36908,49.0969673 C280.03256,48.6464945 280.855386,48.4212582 281.834809,48.4212582 C284.461258,48.4212582 285.975037,49.7132582 286.380268,52.2958764 L292.395549,52.2958764 C292.309009,50.8449673 291.962845,49.5902764 291.357058,48.52904 C290.749898,47.4705673 289.964162,46.5862036 288.998475,45.8745673 C288.032788,45.1643127 286.935229,44.6336945 285.708546,44.2854764 C284.483236,43.9372582 283.205727,43.7631491 281.877393,43.7631491 C280.061407,43.7631491 278.443229,44.0671491 277.032475,44.6765309 C275.618973,45.2872945 274.419763,46.1357309 273.44034,47.2246036 C272.458169,48.3120945 271.715016,49.6040945 271.21088,51.0992218 C270.705372,52.5943491 270.453991,54.2124582 270.453991,55.9521673 C270.453991,57.6366036 270.72735,59.1814764 271.275443,60.5895491 C271.822162,61.9976218 272.587293,63.2080945 273.56809,64.2251127 C274.550261,65.2407491 275.739856,66.0311491 277.139621,66.5976945 C278.540759,67.16424 280.075144,67.4461309 281.749642,67.4461309 C284.719507,67.4461309 287.157763,66.66264 289.063037,65.0956582 C290.966937,63.5286764 292.120816,61.2500582 292.526048,58.2598036 L286.597307,58.2598036 C286.392631,59.6526764 285.896738,60.7636582 285.102759,61.5913673 L285.102759,61.5913673 Z M262.034795,66.8809673 L268.181948,66.8809673 L268.181948,44.3725309 L262.034795,44.3725309 L262.034795,66.8809673 Z M262.034795,40.8889673 L268.181948,40.8889673 L268.181948,35.7955855 L262.034795,35.7955855 L262.034795,40.8889673 Z M257.266802,46.30984 C256.661016,45.5125309 255.831322,44.8879491 254.77772,44.4374764 C253.725493,43.9883855 252.376553,43.7631491 250.730902,43.7631491 C249.432788,43.7631491 248.163521,44.06024 246.924475,44.6558036 C245.682681,45.2499855 244.673037,46.2006764 243.892795,47.5064945 L243.76367,47.5064945 L243.76367,44.3725309 L237.920098,44.3725309 L237.920098,66.8809673 L244.067251,66.8809673 L244.067251,55.0830036 C244.067251,52.7891855 244.442261,51.1420582 245.190909,50.14024 C245.942304,49.1398036 247.155251,48.6382036 248.827001,48.6382036 C250.299571,48.6382036 251.321578,49.0969673 251.901265,50.0103491 C252.478204,50.9251127 252.7653,52.3110764 252.7653,54.1668582 L252.7653,66.8809673 L258.912453,66.8809673 L258.912453,53.0365309 C258.912453,51.6422764 258.788823,50.3723855 258.544311,49.2268582 C258.297051,48.0799491 257.873962,47.1085309 257.266802,46.30984 L257.266802,46.30984 Z M228.706923,56.1704945 C228.706923,58.4643127 228.331912,60.1100582 227.580517,61.1118764 C226.83187,62.1123127 225.618923,62.6139127 223.944425,62.6139127 C222.474603,62.6139127 221.449848,62.1579127 220.872909,61.2431491 C220.295969,60.3283855 220.006126,58.9438036 220.006126,57.0852582 L220.006126,44.3725309 L213.863094,44.3725309 L213.863094,58.2169673 C213.863094,59.60984 213.982603,60.8797309 214.229863,62.02664 C214.474375,63.1735491 214.900211,64.1449673 215.507372,64.9422764 C216.113158,65.7409673 216.942852,66.35864 217.993706,66.7925309 C219.048681,67.2291855 220.397621,67.4461309 222.043272,67.4461309 C223.341386,67.4461309 224.610653,67.1559491 225.849699,66.5755855 C227.088745,65.9952218 228.101137,65.05144 228.878631,63.7456218 L229.010503,63.7456218 L229.010503,66.8809673 L234.851329,66.8809673 L234.851329,44.3725309 L228.706923,44.3725309 L228.706923,56.1704945 Z M208.557998,45.5912945 C207.836823,44.9528945 206.970041,44.4899855 205.96177,44.1984218 C204.949379,43.9096218 203.854567,43.7631491 202.671841,43.7631491 C201.112731,43.7631491 199.763791,44.1403855 198.623649,44.8948582 C197.483507,45.6493309 196.583756,46.5198764 195.918902,47.5064945 C195.315863,46.1136218 194.427101,45.1408218 193.258112,44.5908582 C192.090496,44.0381309 190.797877,43.7631491 189.385749,43.7631491 C187.913179,43.7631491 186.606823,44.0837309 185.469428,44.7207491 C184.329286,45.3591491 183.355357,46.2600945 182.547642,47.4208218 L182.461101,47.4208218 L182.461101,44.3725309 L176.661485,44.3725309 L176.661485,66.8809673 L182.807265,66.8809673 L182.807265,53.8200218 C182.807265,52.7173309 182.965236,51.8246764 183.282553,51.1420582 C183.59987,50.4608218 183.983122,49.9384945 184.430937,49.5750764 C184.876005,49.21304 185.337557,48.9656945 185.815592,48.8344218 C186.289507,48.7031491 186.674133,48.6382036 186.961229,48.6382036 C187.942026,48.6382036 188.685179,48.8067855 189.190688,49.1398036 C189.694823,49.4742036 190.057471,49.9163855 190.271763,50.4677309 C190.488802,51.0190764 190.612432,51.6215491 190.638532,52.2737673 C190.668752,52.9273673 190.682489,53.5878764 190.682489,54.2552945 L190.682489,66.8809673 L196.828268,66.8809673 L196.828268,54.3409673 C196.828268,53.6459127 196.879094,52.9563855 196.979372,52.2737673 C197.081023,51.5925309 197.281578,50.9831491 197.585158,50.4456218 C197.888738,49.9080945 198.306332,49.4742036 198.840688,49.1398036 C199.375044,48.8067855 200.07424,48.6382036 200.938275,48.6382036 C201.805058,48.6382036 202.489144,48.7846764 202.996026,49.0748582 C203.501535,49.36504 203.882041,49.7560945 204.141663,50.2507855 C204.40266,50.7440945 204.560631,51.3244582 204.619699,51.9904945 C204.676019,52.6592945 204.70624,53.3695491 204.70624,54.1240218 L204.70624,66.8809673 L210.852019,66.8809673 L210.852019,51.8163855 C210.852019,50.3654764 210.648717,49.1246036 210.246233,48.0951491 C209.841001,47.0656945 209.277799,46.2296945 208.557998,45.5912945 L208.557998,45.5912945 Z M168.032119,58.2819127 C167.857663,59.13864 167.563699,59.9083127 167.144731,60.5895491 C166.725763,61.2721673 166.16256,61.8166036 165.456496,62.2228582 C164.749058,62.6291127 163.876781,62.83224 162.83829,62.83224 C161.799799,62.83224 160.933016,62.6291127 160.240688,62.2228582 C159.549735,61.8166036 158.9934,61.2721673 158.575806,60.5895491 C158.156838,59.9083127 157.8615,59.13864 157.688418,58.2819127 C157.515336,57.4265673 157.428795,56.5477309 157.428795,55.6481673 C157.428795,54.7486036 157.515336,53.86424 157.688418,52.9923127 C157.8615,52.1217673 158.156838,51.3520945 158.575806,50.6846764 C158.9934,50.01864 159.549735,49.4742036 160.240688,49.0527491 C160.933016,48.6326764 161.799799,48.4212582 162.83829,48.4212582 C163.876781,48.4212582 164.749058,48.6326764 165.456496,49.0527491 C166.16256,49.4742036 166.725763,50.01864 167.144731,50.6846764 C167.563699,51.3520945 167.857663,52.1217673 168.032119,52.9923127 C168.203827,53.86424 168.291742,54.7486036 168.291742,55.6481673 C168.291742,56.5477309 168.203827,57.4265673 168.032119,58.2819127 L168.032119,58.2819127 Z M171.27809,47.0062764 C170.267073,45.9768218 169.050005,45.1781309 167.621393,44.6115855 C166.191407,44.04504 164.597955,43.7631491 162.83829,43.7631491 C161.078624,43.7631491 159.490667,44.04504 158.077165,44.6115855 C156.663663,45.1781309 155.45209,45.9768218 154.442446,47.0062764 C153.431428,48.0371127 152.653934,49.2848945 152.105841,50.7510036 C151.556375,52.2157309 151.283016,53.84904 151.283016,55.6481673 C151.283016,57.4472945 151.556375,59.0723127 152.105841,60.5246036 C152.653934,61.9755127 153.431428,63.2163855 154.442446,64.24584 C155.45209,65.2766764 156.663663,66.0684582 158.077165,66.6184218 C159.490667,67.1711491 161.078624,67.4461309 162.83829,67.4461309 C164.597955,67.4461309 166.191407,67.1711491 167.621393,66.6184218 C169.050005,66.0684582 170.267073,65.2766764 171.27809,64.24584 C172.287735,63.2163855 173.065229,61.9755127 173.616069,60.5246036 C174.162788,59.0723127 174.436147,57.4472945 174.436147,55.6481673 C174.436147,53.84904 174.162788,52.2157309 173.616069,50.7510036 C173.065229,49.2848945 172.287735,48.0371127 171.27809,47.0062764 L171.27809,47.0062764 Z M142.861073,61.5913673 C142.067094,62.4176945 140.935194,62.83224 139.462624,62.83224 C138.512048,62.83224 137.702959,62.6139127 137.039478,62.17864 C136.375998,61.7433673 135.851258,61.1851127 135.459763,60.5024945 C135.069642,59.8198764 134.789414,59.0584945 134.616332,58.2169673 C134.443251,57.37544 134.35671,56.5477309 134.35671,55.7352218 C134.35671,54.8936945 134.443251,54.0452582 134.616332,53.1871491 C134.789414,52.3318036 135.084752,51.5496945 135.50372,50.8366764 C135.919941,50.1278036 136.462539,49.54744 137.126019,49.0969673 C137.790873,48.6464945 138.610952,48.4212582 139.593122,48.4212582 C142.218197,48.4212582 143.73335,49.7132582 144.138581,52.2958764 L150.153863,52.2958764 C150.067322,50.8449673 149.721158,49.5902764 149.115372,48.52904 C148.508211,47.4705673 147.722475,46.5862036 146.756788,45.8745673 C145.788354,45.1643127 144.693542,44.6336945 143.468233,44.2854764 C142.240176,43.9372582 140.964041,43.7631491 139.635706,43.7631491 C137.818347,43.7631491 136.201542,44.0671491 134.789414,44.6765309 C133.375912,45.2872945 132.178076,46.1357309 131.197279,47.2246036 C130.216482,48.3120945 129.473329,49.6040945 128.969194,51.0992218 C128.463685,52.5943491 128.21093,54.2124582 128.21093,55.9521673 C128.21093,57.6366036 128.48429,59.1814764 129.033756,60.5895491 C129.580475,61.9976218 130.345606,63.2080945 131.327777,64.2251127 C132.307201,65.2407491 133.498169,66.0311491 134.897934,66.5976945 C136.296325,67.16424 137.833457,67.4461309 139.507955,67.4461309 C142.47782,67.4461309 144.916076,66.66264 146.82135,65.0956582 C148.726624,63.5286764 149.87913,61.2500582 150.282987,58.2598036 L144.354247,58.2598036 C144.152318,59.6526764 143.653678,60.7636582 142.861073,61.5913673 L142.861073,61.5913673 Z" id="Fill-5" sketch:type="MSShapeGroup"></path>
            </g>
        </g>
    </g>
</svg>